<?xml version="1.0" encoding="UTF-8" ?>
<!DOCTYPE svg PUBLIC "-//W3C//DTD SVG 1.1//EN" "http://www.w3.org/Graphics/SVG/1.1/DTD/svg11.dtd">
<svg width="112pt" height="108pt" viewBox="0 0 112 108" version="1.1" xmlns="http://www.w3.org/2000/svg">
<g id="#212650ff">
<path fill="#212650" opacity="1.00" d=" M 42.58 6.31 C 44.12 1.04 51.43 -1.44 55.66 2.32 C 59.40 4.63 59.33 9.40 58.72 13.22 C 63.18 10.15 68.74 5.50 74.41 8.53 C 79.32 11.42 80.99 17.43 84.25 21.84 C 66.23 33.92 47.74 45.30 29.58 57.17 C 46.38 57.05 63.18 57.16 79.97 57.11 C 84.28 57.06 88.62 56.95 92.89 57.63 C 92.81 70.78 92.87 83.93 92.87 97.08 C 93.00 100.32 91.82 103.70 89.24 105.76 C 85.51 108.52 80.43 107.13 76.17 108.00 L 41.96 108.00 C 36.09 106.53 28.01 109.74 23.57 104.44 C 21.58 102.52 21.22 99.67 21.28 97.04 C 21.35 85.49 21.27 73.95 21.35 62.40 C 19.42 63.58 17.50 64.75 15.56 65.91 C 12.32 61.65 8.81 57.24 7.45 51.99 C 6.69 44.91 14.14 41.93 18.97 38.69 C 17.12 36.78 15.02 34.76 14.84 31.93 C 14.03 26.79 18.66 21.59 23.91 22.20 C 28.73 22.80 33.39 24.26 38.12 25.29 C 39.64 18.97 40.85 12.58 42.58 6.31 M 46.02 8.05 C 44.54 13.19 43.63 18.48 42.32 23.66 C 46.07 20.95 50.34 18.91 53.92 16.01 C 54.97 12.72 56.72 8.15 53.39 5.57 C 50.93 3.40 46.82 5.01 46.02 8.05 M 66.65 12.62 C 61.21 16.30 55.54 19.61 50.10 23.28 C 52.66 27.07 54.96 31.04 57.51 34.84 C 64.54 29.79 72.05 25.47 79.26 20.69 C 77.42 18.15 75.85 15.43 73.98 12.91 C 72.20 10.60 68.75 10.97 66.65 12.62 M 18.98 32.89 C 19.89 34.65 22.35 36.89 24.30 35.25 C 27.88 32.99 31.38 30.59 34.97 28.35 C 31.01 27.55 27.08 26.44 23.04 26.14 C 19.81 26.17 17.40 29.98 18.98 32.89 M 34.65 33.24 C 37.16 37.04 39.49 40.96 41.91 44.82 C 45.93 42.06 50.00 39.37 54.13 36.79 C 51.80 32.96 49.29 29.23 47.01 25.37 C 42.78 27.82 38.71 30.52 34.65 33.24 M 14.16 46.30 C 12.01 47.50 10.54 50.15 11.41 52.58 C 12.87 55.56 14.94 58.19 16.61 61.05 C 23.75 55.96 31.40 51.68 38.60 46.68 C 36.24 42.84 33.81 39.04 31.35 35.27 C 25.56 38.87 19.99 42.79 14.16 46.30 M 25.11 61.13 C 25.24 73.45 25.09 85.78 25.18 98.11 C 25.04 101.19 27.81 103.96 30.93 103.58 C 48.28 103.60 65.63 103.58 82.98 103.60 C 86.11 103.94 89.21 101.31 89.11 98.10 C 89.24 85.77 89.10 73.43 89.16 61.10 C 67.81 61.13 46.46 61.10 25.11 61.13 Z" />
<path fill="#212650" opacity="1.00" d=" M 87.48 3.35 C 91.22 1.30 93.86 7.84 89.91 9.14 C 86.33 10.61 83.84 4.91 87.48 3.35 Z" />
<path fill="#212650" opacity="1.00" d=" M 100.54 16.56 C 103.98 14.36 104.37 9.93 106.73 6.89 C 107.32 7.40 108.50 8.42 109.09 8.93 C 108.23 11.65 107.56 14.52 105.89 16.88 C 101.66 21.86 94.18 22.98 88.25 20.75 C 86.25 20.42 86.35 17.47 88.44 17.37 C 92.46 17.79 96.89 18.95 100.54 16.56 Z" />
<path fill="#212650" opacity="1.00" d=" M 86.43 26.22 C 92.81 22.99 100.44 23.96 106.64 27.13 C 106.00 28.21 105.29 29.25 104.46 30.20 C 99.69 27.99 94.04 26.90 89.07 29.12 C 83.66 31.26 80.38 36.28 76.99 40.71 C 76.10 39.87 75.21 39.02 74.34 38.15 C 77.53 33.47 80.97 28.44 86.43 26.22 Z" />
<path fill="#212650" opacity="1.00" d=" M 63.51 38.61 C 66.69 36.52 70.14 42.07 66.68 44.01 C 63.32 46.61 59.65 40.39 63.51 38.61 Z" />
<path fill="#212650" opacity="1.00" d=" M 48.30 67.26 C 49.64 67.22 50.98 67.18 52.33 67.15 C 52.40 77.27 52.30 87.38 52.38 97.50 C 51.03 97.54 49.68 97.57 48.33 97.60 C 48.32 87.49 48.38 77.37 48.30 67.26 Z" />
<path fill="#212650" opacity="1.00" d=" M 61.87 67.18 C 63.14 67.20 64.41 67.22 65.69 67.26 C 65.61 77.35 65.64 87.45 65.67 97.56 C 64.40 97.56 63.13 97.56 61.86 97.55 C 61.86 87.42 61.84 77.30 61.87 67.18 Z" />
</g>
<g id="#5cf8adff">
<path fill="#5cf8ad" opacity="1.00" d=" M 100.87 39.42 C 102.95 38.24 105.05 37.11 107.18 36.02 C 109.10 38.50 107.91 41.52 107.44 44.26 C 109.00 45.72 110.56 47.18 112.00 48.76 L 112.00 50.90 C 109.72 51.50 107.40 51.96 105.08 52.42 C 103.98 54.35 103.01 56.38 101.62 58.13 C 98.64 58.69 98.17 54.20 96.55 52.37 C 94.40 51.89 92.03 51.95 90.10 50.79 C 88.87 47.89 92.67 46.14 94.23 44.21 C 93.83 42.13 93.44 40.05 93.06 37.97 C 93.54 37.53 94.48 36.64 94.95 36.20 C 96.92 37.28 98.90 38.35 100.87 39.42 Z" />
<path fill="#5cf8ad" opacity="1.00" d=" M 4.47 71.28 C 8.93 68.24 15.80 70.32 17.75 75.37 C 20.49 80.84 16.06 88.15 9.99 88.46 C 5.17 88.94 1.01 84.97 0.00 80.46 L 0.00 78.46 C 0.38 75.58 1.76 72.63 4.47 71.28 Z" />
</g>
</svg>
