<?xml version="1.0" encoding="UTF-8" ?>
<!DOCTYPE svg PUBLIC "-//W3C//DTD SVG 1.1//EN" "http://www.w3.org/Graphics/SVG/1.1/DTD/svg11.dtd">
<svg width="99pt" height="99pt" viewBox="0 0 99 99" version="1.1" xmlns="http://www.w3.org/2000/svg">
<g id="#353644ff">
<path fill="#353644" opacity="1.00" d=" M 45.13 0.00 L 53.11 0.00 C 65.51 1.16 77.54 6.85 85.83 16.23 C 97.25 28.69 101.67 47.37 96.40 63.52 C 91.95 78.82 79.50 91.47 64.27 96.16 C 52.32 100.31 38.90 99.05 27.60 93.53 C 12.15 86.23 1.62 70.34 0.00 53.43 L 0.00 45.33 C 1.07 34.74 5.26 24.35 12.47 16.44 C 20.72 7.00 32.72 1.27 45.13 0.00 M 41.38 8.54 C 24.57 11.54 10.67 25.97 8.26 42.87 C 6.31 54.91 10.11 67.69 18.25 76.76 C 25.07 84.48 34.84 89.54 45.12 90.53 C 57.31 91.81 69.96 87.27 78.57 78.55 C 88.07 69.22 92.51 55.06 90.09 41.97 C 88.55 33.34 84.22 25.21 77.80 19.21 C 68.31 10.07 54.31 5.93 41.38 8.54 Z" />
<path fill="#353644" opacity="1.00" d=" M 52.51 28.45 C 54.10 26.84 56.60 27.47 57.98 29.00 C 62.14 32.86 66.11 36.92 70.19 40.86 C 73.39 43.77 74.77 48.45 73.48 52.61 C 72.47 56.71 68.76 59.12 66.05 62.04 C 62.95 64.99 60.16 68.30 56.75 70.91 C 53.60 73.08 49.57 68.75 51.60 65.67 C 55.79 60.82 60.73 56.68 65.11 52.00 C 66.52 50.68 66.61 48.22 65.13 46.91 C 60.96 42.37 56.18 38.43 52.07 33.84 C 50.45 32.41 50.89 29.70 52.51 28.45 Z" />
<path fill="#353644" opacity="1.00" d=" M 26.27 45.42 C 33.84 44.88 41.46 45.34 49.05 45.18 C 51.72 45.31 54.58 44.78 57.11 45.86 C 60.13 47.58 58.69 53.30 55.03 52.86 C 45.66 53.01 36.29 53.00 26.92 52.89 C 22.76 53.07 22.10 45.95 26.27 45.42 Z" />
</g>
</svg>
