<?xml version="1.0" encoding="UTF-8" ?>
<!DOCTYPE svg PUBLIC "-//W3C//DTD SVG 1.1//EN" "http://www.w3.org/Graphics/SVG/1.1/DTD/svg11.dtd">
<svg width="108pt" height="115pt" viewBox="0 0 108 115" version="1.1" xmlns="http://www.w3.org/2000/svg">
<g id="#212650fe">
<path fill="#212650" opacity="1.00" d=" M 82.98 0.42 C 84.72 0.44 86.45 0.45 88.18 0.46 C 88.32 2.08 87.55 3.97 88.60 5.41 C 89.91 6.27 91.53 5.75 92.99 5.84 C 92.98 7.63 92.98 9.43 92.98 11.22 C 91.38 11.22 89.77 11.21 88.17 11.21 C 88.08 12.98 87.99 14.74 87.89 16.51 C 86.18 16.50 84.46 16.51 82.75 16.51 C 82.79 14.75 82.83 12.98 82.86 11.22 C 81.04 11.22 79.21 11.22 77.39 11.22 C 77.42 9.42 77.44 7.62 77.47 5.82 C 79.29 5.82 81.11 5.82 82.93 5.82 C 82.95 4.02 82.96 2.22 82.98 0.42 M 82.94 5.86 C 82.92 7.63 82.89 9.40 82.87 11.17 C 84.61 11.19 86.36 11.22 88.11 11.25 C 88.06 9.58 88.45 7.81 87.77 6.22 C 86.24 5.52 84.55 5.89 82.94 5.86 Z" />
<path fill="#212650" opacity="1.00" d=" M 4.45 18.40 C 7.38 15.90 11.43 16.14 15.02 16.12 C 27.38 16.25 39.73 16.04 52.08 16.17 C 56.67 15.99 61.05 19.02 62.60 23.32 C 64.01 28.71 63.07 34.36 63.25 39.86 C 74.54 39.97 85.82 39.76 97.10 39.94 C 102.44 39.84 107.31 44.04 108.00 49.33 L 108.00 82.16 C 107.10 87.34 102.33 91.45 97.03 91.25 C 85.76 91.34 74.50 91.19 63.23 91.29 C 63.10 96.75 63.98 102.35 62.65 107.70 C 61.38 111.49 57.91 114.10 54.11 115.00 L 10.18 115.00 C 4.94 114.60 0.89 110.27 0.00 105.23 L 0.00 26.68 C 0.47 23.50 1.78 20.33 4.45 18.40 M 3.94 26.89 C 3.78 51.93 3.95 76.98 3.85 102.02 C 3.78 104.70 4.14 107.78 6.41 109.54 C 8.48 111.36 11.37 111.27 13.96 111.28 C 26.66 111.20 39.36 111.34 52.06 111.22 C 56.01 111.40 59.76 108.03 59.42 103.95 C 59.45 78.30 59.46 52.64 59.42 26.98 C 59.68 22.05 54.59 19.43 50.26 19.71 C 49.84 21.88 49.92 24.47 48.12 26.06 C 45.69 28.43 42.03 27.72 38.96 27.84 C 32.08 27.62 25.17 28.12 18.30 27.61 C 14.52 27.08 13.13 23.03 13.15 19.70 C 8.81 19.42 3.84 22.00 3.94 26.89 M 16.83 19.89 C 17.01 21.65 17.56 24.20 19.85 24.08 C 27.88 24.13 35.93 24.29 43.95 23.99 C 46.08 23.86 46.28 21.50 46.53 19.88 C 36.63 19.91 26.73 19.85 16.83 19.89 M 63.23 43.66 C 63.33 58.27 63.38 72.88 63.21 87.49 C 74.49 87.54 85.77 87.54 97.05 87.51 C 101.12 87.78 104.60 84.00 104.29 79.99 C 104.31 70.30 104.34 60.61 104.28 50.92 C 104.48 47.00 100.95 43.53 97.05 43.67 C 85.78 43.61 74.50 43.66 63.23 43.66 Z" />
<path fill="#212650" opacity="1.00" d=" M 20.45 39.55 C 24.96 37.35 30.84 41.06 31.09 45.97 C 31.59 50.10 28.14 54.18 24.01 54.46 C 19.47 54.90 15.17 50.51 15.70 45.99 C 15.96 43.18 17.99 40.78 20.45 39.55 M 21.24 43.10 C 18.47 44.72 18.65 48.98 21.47 50.43 C 24.44 52.38 28.65 48.79 27.50 45.56 C 26.83 43.00 23.49 41.61 21.24 43.10 Z" />
<path fill="#212650" opacity="1.00" d=" M 79.78 47.88 C 80.68 47.88 82.48 47.87 83.38 47.87 C 83.40 48.81 83.43 50.69 83.45 51.63 C 82.52 51.64 80.67 51.64 79.74 51.64 C 79.75 50.70 79.77 48.82 79.78 47.88 Z" />
<path fill="#212650" opacity="1.00" d=" M 87.17 47.90 C 88.37 47.90 89.57 47.90 90.78 47.91 C 90.83 49.14 90.89 50.37 90.97 51.61 C 89.64 51.62 88.31 51.63 86.99 51.64 C 87.07 50.39 87.13 49.15 87.17 47.90 Z" />
<path fill="#212650" opacity="1.00" d=" M 94.55 47.90 C 95.49 47.90 97.35 47.90 98.28 47.90 C 98.30 48.84 98.33 50.72 98.34 51.66 C 97.38 51.65 95.45 51.65 94.49 51.65 C 94.50 50.71 94.54 48.84 94.55 47.90 Z" />
<path fill="#212650" opacity="1.00" d=" M 69.23 55.76 C 78.92 55.73 88.61 55.76 98.30 55.74 C 98.31 56.71 98.33 58.64 98.33 59.60 C 88.62 59.61 78.90 59.64 69.18 59.58 C 69.20 58.31 69.21 57.03 69.23 55.76 Z" />
<path fill="#212650" opacity="1.00" d=" M 81.77 71.64 C 84.26 69.50 87.71 70.05 90.59 70.97 C 89.64 71.75 88.71 72.56 87.82 73.40 C 85.84 74.00 82.93 74.40 82.73 77.01 C 82.14 80.11 85.48 81.18 87.84 81.62 C 88.73 82.44 89.65 83.22 90.59 83.99 C 87.72 85.06 84.18 85.55 81.72 83.30 C 77.92 80.54 78.01 74.39 81.77 71.64 Z" />
<path fill="#212650" opacity="1.00" d=" M 32.43 85.80 C 33.33 85.80 35.15 85.81 36.06 85.82 C 36.06 86.75 36.07 88.63 36.08 89.57 C 35.14 89.56 33.26 89.55 32.32 89.54 C 32.35 88.61 32.40 86.74 32.43 85.80 Z" />
<path fill="#212650" opacity="1.00" d=" M 39.70 85.82 C 40.65 85.82 42.53 85.82 43.47 85.82 C 43.48 86.76 43.52 88.63 43.53 89.56 C 42.57 89.57 40.63 89.58 39.66 89.58 C 39.67 88.64 39.69 86.76 39.70 85.82 Z" />
<path fill="#212650" opacity="1.00" d=" M 47.19 85.82 C 48.42 85.82 49.66 85.82 50.89 85.82 C 50.91 87.07 50.94 88.32 50.98 89.57 C 49.68 89.55 48.37 89.54 47.07 89.55 C 47.11 88.31 47.15 87.06 47.19 85.82 Z" />
<path fill="#212650" opacity="1.00" d=" M 21.85 93.74 C 31.54 93.75 41.23 93.73 50.92 93.75 C 50.94 94.68 50.97 96.53 50.98 97.46 C 41.27 97.53 31.55 97.48 21.84 97.49 C 21.84 96.55 21.85 94.68 21.85 93.74 Z" />
</g>
<g id="#5cf8adff">
<path fill="#5cf8ad" opacity="1.00" d=" M 13.15 34.27 C 24.45 34.00 35.77 34.23 47.07 34.16 C 49.31 33.75 51.54 35.60 51.25 37.94 C 51.27 48.95 51.29 59.96 51.24 70.97 C 51.55 73.30 49.28 75.04 47.09 74.72 C 36.07 74.72 25.05 74.80 14.03 74.69 C 12.04 74.83 10.32 73.00 10.52 71.02 C 10.48 60.01 10.49 49.00 10.51 38.00 C 10.35 36.34 11.40 34.49 13.15 34.27 M 20.45 39.55 C 17.99 40.78 15.96 43.18 15.70 45.99 C 15.17 50.51 19.47 54.90 24.01 54.46 C 28.14 54.18 31.59 50.10 31.09 45.97 C 30.84 41.06 24.96 37.35 20.45 39.55 Z" />
<path fill="#5cf8ad" opacity="1.00" d=" M 21.24 43.10 C 23.49 41.61 26.83 43.00 27.50 45.56 C 28.65 48.79 24.44 52.38 21.47 50.43 C 18.65 48.98 18.47 44.72 21.24 43.10 Z" />
<path fill="#5cf8ad" opacity="1.00" d=" M 90.59 70.97 C 94.91 68.53 100.87 71.19 101.76 76.11 C 103.16 82.05 95.74 87.36 90.59 83.99 C 89.65 83.22 88.73 82.44 87.84 81.62 C 86.67 78.98 86.70 76.06 87.82 73.40 C 88.71 72.56 89.64 71.75 90.59 70.97 Z" />
</g>
</svg>
