<?xml version="1.0" encoding="UTF-8" ?>
<!DOCTYPE svg PUBLIC "-//W3C//DTD SVG 1.1//EN" "http://www.w3.org/Graphics/SVG/1.1/DTD/svg11.dtd">
<svg width="106pt" height="114pt" viewBox="0 0 106 114" version="1.1" xmlns="http://www.w3.org/2000/svg">
<g id="#212650ff">
<path fill="#212650" opacity="1.00" d=" M 57.13 0.00 L 61.93 0.00 C 61.90 1.26 61.83 2.53 61.71 3.79 C 60.42 4.68 58.33 5.21 57.35 3.66 C 57.23 2.44 57.16 1.22 57.13 0.00 Z" />
<path fill="#212650" opacity="1.00" d=" M 52.88 4.35 C 54.26 4.29 55.53 4.59 56.70 5.28 C 57.74 6.45 57.71 7.57 56.59 8.65 C 55.42 9.16 54.19 9.31 52.89 9.08 C 52.88 7.51 52.88 5.93 52.88 4.35 Z" />
<path fill="#212650" opacity="1.00" d=" M 62.20 5.22 C 63.43 4.65 64.74 4.34 66.12 4.28 C 66.12 5.92 66.12 7.57 66.12 9.22 C 64.79 9.22 63.49 9.07 62.22 8.76 C 61.46 7.59 61.45 6.41 62.20 5.22 Z" />
<path fill="#212650" opacity="1.00" d=" M 58.44 9.27 C 59.00 9.23 60.13 9.15 60.70 9.11 C 61.56 10.32 62.00 11.69 62.02 13.23 C 60.80 13.23 58.36 13.25 57.14 13.25 C 56.97 11.69 57.40 10.36 58.44 9.27 Z" />
<path fill="#212650" opacity="1.00" d=" M 22.52 22.95 C 24.35 20.90 26.12 18.34 29.05 17.91 C 32.62 16.85 35.81 19.14 38.52 21.13 L 37.58 21.32 C 37.43 21.97 37.13 23.29 36.98 23.94 C 36.69 24.24 36.10 24.84 35.81 25.14 C 34.34 24.00 33.11 22.07 31.06 22.09 C 28.41 21.86 26.31 24.49 26.57 27.02 C 26.47 37.79 26.60 48.56 26.55 59.33 C 25.09 59.31 23.63 59.28 22.18 59.26 C 22.12 49.52 22.54 39.76 22.03 30.04 C 21.58 25.65 14.75 25.23 13.64 29.44 C 12.98 35.10 13.56 40.83 13.39 46.52 C 15.46 48.38 17.98 50.19 18.53 53.10 C 19.91 59.70 20.82 66.38 21.89 73.03 C 25.00 74.62 28.15 76.13 31.29 77.67 C 36.99 79.64 37.11 86.63 39.62 91.24 C 38.25 91.81 36.89 92.39 35.52 92.96 C 34.08 89.61 33.19 85.96 31.17 82.91 C 27.11 80.04 22.34 78.38 18.00 76.00 C 16.91 69.64 15.89 63.26 14.84 56.89 C 14.40 54.81 14.08 52.22 11.99 51.10 C 9.08 49.33 4.72 51.50 4.75 55.01 C 4.61 61.32 4.25 67.71 4.98 73.98 C 7.81 80.80 11.98 87.02 15.40 93.57 C 19.56 99.58 17.12 107.21 17.74 114.00 L 13.40 114.00 C 12.84 107.89 14.91 101.11 11.50 95.58 C 8.27 89.76 4.99 83.96 1.85 78.09 C -0.81 73.15 0.45 67.38 0.16 62.03 C 0.31 57.99 -0.54 53.42 2.02 49.94 C 3.62 47.55 6.54 46.83 9.05 45.80 C 9.39 39.77 8.40 33.60 9.59 27.66 C 11.44 22.34 17.74 21.14 22.52 22.95 Z" />
<path fill="#212650" opacity="1.00" d=" M 43.59 29.65 C 45.81 27.36 48.96 26.61 52.01 26.28 C 51.97 27.69 51.92 29.10 51.88 30.51 C 49.20 31.22 46.17 32.21 45.02 35.02 C 43.08 38.05 44.39 41.90 46.81 44.24 C 50.74 48.28 54.77 52.22 58.83 56.13 C 57.73 57.15 56.62 58.17 55.50 59.19 C 51.36 54.79 46.87 50.72 42.74 46.32 C 38.34 41.82 38.80 33.70 43.59 29.65 Z" />
<path fill="#212650" opacity="1.00" d=" M 81.21 30.79 C 82.83 30.81 84.45 30.82 86.08 30.84 C 85.97 32.30 85.84 33.75 85.69 35.20 C 82.70 36.15 80.69 33.64 81.21 30.79 Z" />
<path fill="#212650" opacity="1.00" d=" M 76.99 35.06 C 78.97 34.46 81.09 34.87 82.01 36.90 C 81.07 38.87 79.27 40.21 77.02 39.76 C 77.01 38.19 77.00 36.63 76.99 35.06 Z" />
<path fill="#212650" opacity="1.00" d=" M 85.69 35.20 C 87.20 35.10 88.71 35.02 90.21 34.95 C 90.24 36.61 90.25 38.26 90.26 39.92 C 88.82 39.81 87.47 39.44 86.20 38.81 C 85.86 37.63 85.69 36.43 85.69 35.20 Z" />
<path fill="#212650" opacity="1.00" d=" M 81.24 44.08 C 80.57 41.53 83.23 37.91 85.76 40.21 C 86.02 41.46 86.14 42.73 86.12 44.03 C 84.49 44.05 82.87 44.06 81.24 44.08 Z" />
<path fill="#212650" opacity="1.00" d=" M 35.48 51.40 C 36.71 52.74 38.00 54.02 39.30 55.29 C 39.52 56.61 39.81 57.93 40.04 59.25 C 38.45 59.27 36.86 59.28 35.28 59.30 C 35.34 56.66 35.39 54.03 35.48 51.40 Z" />
<path fill="#212650" opacity="1.00" d=" M 58.45 62.07 C 59.54 61.07 60.63 60.07 61.72 59.07 C 62.79 60.09 63.86 61.11 64.95 62.13 C 63.92 63.18 62.89 64.24 61.87 65.30 C 60.73 64.23 59.59 63.15 58.45 62.07 Z" />
<path fill="#212650" opacity="1.00" d=" M 61.77 75.59 C 63.18 76.00 64.60 76.37 66.04 76.65 C 66.10 82.79 66.70 89.29 64.08 95.04 C 62.43 98.83 59.52 101.88 57.70 105.57 C 57.03 108.31 57.42 111.20 57.35 114.00 L 53.13 114.00 C 52.93 110.75 52.40 107.34 53.33 104.17 C 55.91 99.16 60.34 95.01 61.33 89.26 C 62.04 84.74 61.58 80.14 61.77 75.59 Z" />
<path fill="#212650" opacity="1.00" d=" M 74.80 81.15 C 76.29 81.14 77.79 81.14 79.28 81.13 C 79.24 82.60 79.21 84.07 79.17 85.54 C 77.77 85.54 76.37 85.54 74.98 85.54 C 74.92 84.08 74.86 82.61 74.80 81.15 Z" />
<path fill="#212650" opacity="1.00" d=" M 70.47 85.55 C 71.96 85.54 73.45 85.52 74.94 85.51 C 74.93 86.57 74.93 88.67 74.92 89.72 C 73.45 89.75 71.98 89.78 70.51 89.81 C 70.50 88.75 70.48 86.61 70.47 85.55 Z" />
<path fill="#212650" opacity="1.00" d=" M 79.16 85.56 C 80.64 85.53 82.12 85.50 83.60 85.47 C 83.66 86.90 83.71 88.33 83.75 89.77 C 82.24 89.77 80.74 89.78 79.23 89.78 C 79.20 88.37 79.18 86.97 79.16 85.56 Z" />
<path fill="#212650" opacity="1.00" d=" M 74.90 89.78 C 76.34 89.77 77.77 89.77 79.21 89.77 C 79.23 91.27 79.26 92.77 79.29 94.28 C 77.80 94.27 76.30 94.27 74.81 94.27 C 74.84 92.77 74.87 91.27 74.90 89.78 Z" />
</g>
<g id="#5cf8adff">
<path fill="#5cf8ad" opacity="1.00" d=" M 36.98 23.94 C 40.32 20.82 44.38 18.29 49.03 17.86 C 56.30 16.70 63.50 20.10 68.32 25.43 C 73.67 19.39 82.18 16.05 90.13 18.36 C 98.89 20.53 105.67 28.96 105.62 38.03 C 105.84 43.73 103.38 49.32 99.35 53.30 C 93.35 59.30 87.37 65.33 81.32 71.28 C 77.34 75.27 71.65 77.26 66.04 76.65 C 64.60 76.37 63.18 76.00 61.77 75.59 C 56.96 73.61 53.64 69.49 50.01 65.96 C 46.43 62.41 42.89 58.83 39.30 55.29 C 38.00 54.02 36.71 52.74 35.48 51.40 C 29.40 43.94 29.44 32.41 35.81 25.14 C 36.10 24.84 36.69 24.24 36.98 23.94 M 43.59 29.65 C 38.80 33.70 38.34 41.82 42.74 46.32 C 46.87 50.72 51.36 54.79 55.50 59.19 C 56.62 58.17 57.73 57.15 58.83 56.13 C 54.77 52.22 50.74 48.28 46.81 44.24 C 44.39 41.90 43.08 38.05 45.02 35.02 C 46.17 32.21 49.20 31.22 51.88 30.51 C 51.92 29.10 51.97 27.69 52.01 26.28 C 48.96 26.61 45.81 27.36 43.59 29.65 M 81.21 30.79 C 80.69 33.64 82.70 36.15 85.69 35.20 C 85.84 33.75 85.97 32.30 86.08 30.84 C 84.45 30.82 82.83 30.81 81.21 30.79 M 76.99 35.06 C 77.00 36.63 77.01 38.19 77.02 39.76 C 79.27 40.21 81.07 38.87 82.01 36.90 C 81.09 34.87 78.97 34.46 76.99 35.06 M 85.69 35.20 C 85.69 36.43 85.86 37.63 86.20 38.81 C 87.47 39.44 88.82 39.81 90.26 39.92 C 90.25 38.26 90.24 36.61 90.21 34.95 C 88.71 35.02 87.20 35.10 85.69 35.20 M 81.24 44.08 C 82.87 44.06 84.49 44.05 86.12 44.03 C 86.14 42.73 86.02 41.46 85.76 40.21 C 83.23 37.91 80.57 41.53 81.24 44.08 M 58.45 62.07 C 59.59 63.15 60.73 64.23 61.87 65.30 C 62.89 64.24 63.92 63.18 64.95 62.13 C 63.86 61.11 62.79 60.09 61.72 59.07 C 60.63 60.07 59.54 61.07 58.45 62.07 Z" />
</g>
</svg>
