<?xml version="1.0" encoding="UTF-8" ?>
<!DOCTYPE svg PUBLIC "-//W3C//DTD SVG 1.1//EN" "http://www.w3.org/Graphics/SVG/1.1/DTD/svg11.dtd">
<svg width="100pt" height="107pt" viewBox="0 0 100 107" version="1.1" xmlns="http://www.w3.org/2000/svg">
<g id="#212650ff">
<path fill="#212650" opacity="1.00" d=" M 64.76 12.83 C 70.22 8.31 74.22 0.60 82.06 0.21 C 88.67 -0.07 92.89 5.66 96.99 9.94 C 101.25 14.76 100.42 22.56 95.68 26.74 C 93.67 29.05 89.88 29.72 87.52 27.56 C 84.18 24.54 81.04 21.29 78.07 17.91 C 78.79 16.68 79.81 14.50 81.59 15.42 C 85.13 17.79 87.58 21.45 91.00 24.00 C 94.65 22.31 96.55 17.40 94.09 13.98 C 91.85 11.20 89.24 8.72 86.59 6.35 C 84.13 4.14 80.07 4.41 77.77 6.71 C 73.98 10.23 70.49 14.06 66.72 17.60 C 49.13 17.52 31.54 17.61 13.95 17.58 C 8.97 17.27 4.48 22.00 4.93 26.95 C 4.93 46.67 4.90 66.39 4.95 86.10 C 4.68 90.93 9.14 95.29 13.94 95.05 C 32.70 95.11 51.45 95.06 70.21 95.09 C 70.72 96.69 71.32 98.25 72.02 99.77 C 51.97 99.70 31.91 99.79 11.86 99.73 C 5.61 99.78 0.53 94.27 0.00 88.21 L 0.00 25.73 C -0.11 19.14 5.09 12.80 11.91 12.90 C 29.52 12.78 47.14 12.89 64.76 12.83 Z" />
<path fill="#212650" opacity="1.00" d=" M 53.31 24.39 C 55.74 22.33 59.06 26.86 55.88 28.25 C 53.60 30.02 50.81 26.01 53.31 24.39 Z" />
<path fill="#212650" opacity="1.00" d=" M 41.79 35.79 C 43.40 34.30 44.82 32.38 46.98 31.65 C 48.39 32.08 49.65 33.31 49.16 34.90 C 46.54 38.67 42.25 41.06 40.06 45.15 C 39.46 48.38 39.55 51.73 39.93 54.99 C 40.77 57.98 43.75 60.36 46.91 60.30 C 50.35 60.25 54.53 61.06 57.21 58.33 C 64.01 51.76 70.56 44.92 77.34 38.33 C 79.64 35.79 84.18 36.05 86.10 38.89 C 87.36 40.67 87.13 42.94 87.20 45.00 C 87.14 55.78 87.19 66.56 87.16 77.35 C 85.58 77.29 84.00 77.29 82.42 77.37 C 82.40 66.92 82.47 56.47 82.40 46.02 C 82.89 43.71 79.67 42.24 78.30 44.16 C 72.09 50.00 66.37 56.35 60.10 62.13 C 55.40 66.30 48.75 64.60 43.06 64.96 C 39.98 65.27 35.90 64.47 35.25 60.87 C 34.89 55.91 34.98 50.89 35.19 45.92 C 35.55 41.63 38.93 38.64 41.79 35.79 Z" />
</g>
<g id="#5cf8adff">
<path fill="#5cf8ad" opacity="1.00" d=" M 70.21 95.09 C 68.56 87.05 74.36 78.72 82.42 77.37 C 84.00 77.29 85.58 77.29 87.16 77.35 C 94.13 78.51 99.87 84.87 99.74 92.03 C 99.98 99.57 93.70 106.30 86.27 107.00 L 83.86 107.00 C 79.01 106.64 74.63 103.83 72.02 99.77 C 71.32 98.25 70.72 96.69 70.21 95.09 Z" />
</g>
</svg>
