<?xml version="1.0" encoding="UTF-8" ?>
<!DOCTYPE svg PUBLIC "-//W3C//DTD SVG 1.1//EN" "http://www.w3.org/Graphics/SVG/1.1/DTD/svg11.dtd">
<svg width="56pt" height="56pt" viewBox="0 0 56 56" version="1.1" xmlns="http://www.w3.org/2000/svg">
<g id="#10b06aff">
<path fill="#10b06a" opacity="1.00" d=" M 0.70 12.82 C 1.78 7.07 6.25 1.98 12.11 0.90 C 16.69 0.12 21.39 0.63 26.02 0.52 C 28.43 0.23 28.89 4.04 26.62 4.55 C 22.10 4.88 17.54 4.25 13.05 4.91 C 7.89 5.83 4.48 10.97 4.52 16.03 C 4.55 24.38 4.37 32.74 4.61 41.08 C 4.91 46.50 9.46 51.29 14.98 51.34 C 23.34 51.42 31.70 51.36 40.06 51.37 C 44.45 51.45 48.86 48.77 50.33 44.55 C 52.30 39.00 50.48 32.90 51.56 27.26 C 52.73 25.16 56.04 26.70 55.37 28.96 C 55.07 35.16 56.42 41.81 53.49 47.57 C 51.07 52.58 45.53 55.58 40.05 55.48 C 32.02 55.51 24.00 55.51 15.97 55.48 C 10.94 55.56 5.76 53.27 3.05 48.91 C -0.87 43.30 1.04 36.10 0.00 29.79 L 0.00 29.79 C 0.17 25.55 0.52 17.06 0.70 12.82 Z" />
<path fill="#10b06a" opacity="1.00" d=" M 39.42 1.48 C 42.74 -0.49 47.29 0.25 49.87 3.10 C 51.62 5.00 53.93 6.58 54.82 9.11 C 56.13 12.31 55.13 16.21 52.59 18.51 C 45.89 25.19 39.22 31.90 32.51 38.57 C 28.85 42.09 23.40 40.42 18.87 40.82 C 17.11 41.12 14.32 40.60 14.87 38.16 C 15.48 32.87 13.45 26.16 18.18 22.28 C 25.34 15.43 31.95 7.94 39.42 1.48 M 39.07 7.39 C 41.91 10.73 45.27 13.70 48.37 16.84 C 50.32 15.25 52.20 12.82 50.84 10.19 C 49.39 8.27 47.66 6.53 45.76 5.06 C 43.32 3.60 40.38 5.16 39.07 7.39 M 21.08 25.19 C 17.80 28.03 19.58 32.85 19.02 36.63 C 22.34 36.40 25.94 37.38 29.05 36.05 C 34.60 30.76 39.94 25.24 45.37 19.82 C 42.31 16.61 39.05 13.58 36.01 10.34 C 31.03 15.29 26.04 20.22 21.08 25.19 Z" />
</g>
</svg>
