<?xml version="1.0" encoding="UTF-8" ?>
<!DOCTYPE svg PUBLIC "-//W3C//DTD SVG 1.1//EN" "http://www.w3.org/Graphics/SVG/1.1/DTD/svg11.dtd">
<svg width="100pt" height="100pt" viewBox="0 0 100 100" version="1.1" xmlns="http://www.w3.org/2000/svg">
<g id="#f87b8cff">
<path fill="#f87b8c" opacity="1.00" d=" M 46.33 0.00 L 53.47 0.00 C 66.07 1.03 78.30 6.79 86.78 16.23 C 97.74 28.08 102.37 45.48 98.55 61.19 C 95.89 72.53 89.21 82.89 79.87 89.85 C 66.19 100.23 46.99 102.83 31.12 96.16 C 13.76 89.37 1.39 72.15 0.00 53.62 L 0.00 45.52 C 1.23 34.93 5.41 24.55 12.65 16.64 C 21.15 6.97 33.54 1.03 46.33 0.00 M 41.54 8.70 C 27.97 11.40 16.07 21.24 10.95 34.10 C 5.93 46.27 7.10 60.78 14.13 71.92 C 20.53 82.37 31.67 89.78 43.83 91.46 C 56.26 93.36 69.42 89.27 78.54 80.60 C 87.99 71.92 93.00 58.72 91.72 45.96 C 90.70 33.97 84.09 22.65 74.30 15.70 C 64.99 8.94 52.80 6.38 41.54 8.70 Z" />
<path fill="#f87b8c" opacity="1.00" d=" M 42.37 28.38 C 45.36 26.17 49.76 30.75 47.56 33.69 C 43.26 38.65 38.15 42.85 33.66 47.64 C 32.37 48.86 32.33 51.13 33.57 52.40 C 37.91 57.05 42.73 61.25 47.06 65.91 C 49.17 67.90 47.79 71.84 44.99 72.32 C 43.26 72.75 41.70 71.70 40.58 70.50 C 36.41 66.35 32.16 62.28 28.05 58.06 C 23.60 53.68 23.90 45.69 28.53 41.55 C 33.14 37.17 37.46 32.45 42.37 28.38 Z" />
<path fill="#f87b8c" opacity="1.00" d=" M 42.27 46.27 C 43.76 45.63 45.43 45.87 47.01 45.79 C 55.37 45.86 63.72 45.73 72.08 45.89 C 75.07 45.52 77.23 49.26 75.62 51.73 C 74.74 53.37 72.77 53.80 71.06 53.70 C 61.81 53.66 52.56 53.76 43.32 53.55 C 39.89 53.19 39.12 47.63 42.27 46.27 Z" />
</g>
</svg>
