<?xml version="1.0" encoding="UTF-8" ?>
<!DOCTYPE svg PUBLIC "-//W3C//DTD SVG 1.1//EN" "http://www.w3.org/Graphics/SVG/1.1/DTD/svg11.dtd">
<svg width="93pt" height="112pt" viewBox="0 0 93 112" version="1.1" xmlns="http://www.w3.org/2000/svg">
<g id="#212650ff">
<path fill="#212650" opacity="1.00" d=" M 40.46 0.00 L 60.48 0.00 C 65.25 0.81 70.06 3.12 72.67 7.36 C 76.26 12.85 75.46 19.76 75.29 25.99 C 75.12 31.51 69.39 36.08 63.97 34.63 C 59.09 33.35 54.14 32.02 49.04 32.41 C 38.08 32.59 27.69 38.42 21.21 47.15 C 16.29 53.35 14.28 61.22 13.92 69.00 C 14.01 72.15 9.34 72.70 8.32 69.91 C 7.63 59.54 11.78 49.23 18.29 41.28 C 26.46 31.53 39.32 26.06 51.97 26.41 C 56.09 26.46 60.02 27.75 64.04 28.44 C 66.72 29.22 69.46 26.64 69.35 23.98 C 69.54 20.37 69.67 16.69 68.99 13.12 C 67.70 9.42 64.15 6.16 60.08 6.17 C 53.69 6.08 47.28 6.07 40.89 6.18 C 37.32 6.08 34.36 8.71 32.61 11.60 C 30.87 14.83 32.23 18.72 31.09 22.09 C 30.12 24.18 27.03 23.87 25.96 22.01 C 24.83 16.38 25.82 10.05 29.62 5.58 C 32.35 2.39 36.43 0.78 40.46 0.00 Z" />
<path fill="#212650" opacity="1.00" d=" M 43.20 46.99 C 43.04 45.22 44.81 44.35 46.01 43.49 C 47.25 44.35 49.21 45.05 49.04 46.92 C 49.41 53.28 49.01 59.67 49.18 66.04 C 49.10 67.86 50.69 69.14 52.06 70.03 C 56.22 70.67 60.46 69.79 64.61 70.49 C 67.56 71.04 67.02 76.10 63.99 76.01 C 60.00 76.46 55.94 76.30 51.93 76.12 C 47.32 75.79 43.30 71.73 43.22 67.08 C 43.11 60.38 43.14 53.68 43.20 46.99 Z" />
<path fill="#212650" opacity="1.00" d=" M 82.16 44.25 C 83.81 43.12 85.28 44.62 86.10 45.97 C 91.49 54.46 93.93 64.89 92.39 74.86 C 90.59 86.75 83.74 97.99 73.47 104.38 C 62.23 111.49 47.58 113.69 35.05 108.81 C 33.13 108.41 31.99 105.84 33.52 104.35 C 35.04 102.12 37.78 103.86 39.82 104.22 C 48.39 105.93 57.73 105.73 65.60 101.56 C 72.49 99.14 77.85 93.70 81.71 87.65 C 87.21 78.84 88.25 67.60 85.28 57.73 C 84.26 54.08 82.06 50.95 80.51 47.54 C 79.88 46.27 80.94 44.69 82.16 44.25 Z" />
</g>
<g id="#5cf8adff">
<path fill="#5cf8ad" opacity="1.00" d=" M 0.00 94.79 C 0.66 87.35 7.40 81.03 14.94 81.27 C 22.81 81.07 29.90 88.14 29.73 96.02 C 30.03 103.96 22.91 111.16 14.97 110.99 C 7.43 111.22 0.69 104.95 0.00 97.50 L 0.00 94.79 Z" />
</g>
</svg>
