<?xml version="1.0" encoding="UTF-8" ?>
<!DOCTYPE svg PUBLIC "-//W3C//DTD SVG 1.1//EN" "http://www.w3.org/Graphics/SVG/1.1/DTD/svg11.dtd">
<svg width="103pt" height="94pt" viewBox="0 0 103 94" version="1.1" xmlns="http://www.w3.org/2000/svg">
<g id="#b7bbdcff">
<path fill="#b7bbdc" opacity="1.00" d=" M 29.96 0.00 L 62.53 0.00 C 68.13 -0.22 73.93 2.17 76.93 7.05 C 79.70 10.69 79.18 15.47 79.21 19.76 C 83.62 24.05 89.13 27.62 91.73 33.41 C 95.45 40.87 93.44 49.46 93.94 57.45 C 98.68 61.21 102.44 66.72 102.60 72.93 C 103.45 83.36 94.69 93.70 84.12 94.00 L 81.31 94.00 C 70.32 93.89 61.11 82.91 62.71 72.05 C 63.38 60.47 75.66 52.03 86.79 54.31 C 86.48 49.53 87.09 44.69 86.38 39.94 C 85.20 34.03 80.00 30.44 75.87 26.59 C 71.82 30.27 66.69 33.55 65.36 39.22 C 64.22 44.67 65.15 50.30 64.69 55.83 C 64.71 57.13 63.73 58.21 62.66 58.82 C 60.27 60.33 57.15 57.62 57.50 55.06 C 57.76 47.64 56.54 39.75 59.93 32.84 C 62.65 27.46 67.92 24.25 72.01 20.05 C 71.79 17.07 72.29 13.87 70.88 11.12 C 69.30 8.49 66.05 7.26 63.08 7.44 C 52.35 7.45 41.63 7.43 30.90 7.44 C 27.44 7.26 23.71 9.22 22.79 12.75 C 21.89 16.17 22.59 19.79 22.18 23.28 C 17.48 28.85 9.39 32.29 7.97 40.07 C 7.53 50.72 7.87 61.41 7.80 72.08 C 7.48 79.32 13.99 85.68 20.98 86.36 C 33.87 86.79 46.79 85.96 59.67 86.53 C 63.80 87.16 62.82 94.30 58.41 93.60 C 55.59 93.70 49.95 93.90 47.12 94.00 L 32.28 94.00 C 25.52 93.40 18.09 94.82 12.02 91.05 C 2.99 86.40 -1.16 75.63 0.00 65.85 L 0.00 55.16 C 0.88 48.02 -1.07 40.21 2.50 33.61 C 5.00 27.70 10.69 24.33 15.10 20.02 C 15.02 15.24 14.77 9.83 18.13 5.98 C 20.89 2.23 25.42 0.33 29.96 0.00 M 79.17 61.14 C 74.66 62.45 70.86 66.10 69.68 70.69 C 67.43 78.12 73.17 86.82 81.00 87.33 C 88.36 88.46 95.69 82.35 95.81 74.90 C 96.76 66.25 87.47 58.60 79.17 61.14 Z" />
<path fill="#b7bbdc" opacity="1.00" d=" M 32.15 18.32 C 40.39 18.08 48.66 18.15 56.90 18.29 C 60.96 18.41 61.12 25.00 57.07 25.43 C 48.73 25.49 40.38 25.61 32.05 25.33 C 28.52 24.48 28.62 19.09 32.15 18.32 Z" />
<path fill="#b7bbdc" opacity="1.00" d=" M 79.29 67.21 C 80.03 64.92 83.44 63.94 84.99 65.99 C 86.24 67.18 85.83 68.99 86.01 70.53 C 88.25 70.87 91.55 71.79 90.87 74.79 C 88.96 78.91 82.48 78.17 79.34 75.93 C 79.07 73.03 78.92 70.10 79.29 67.21 Z" />
</g>
</svg>
