<?xml version="1.0" encoding="UTF-8" ?>
<!DOCTYPE svg PUBLIC "-//W3C//DTD SVG 1.1//EN" "http://www.w3.org/Graphics/SVG/1.1/DTD/svg11.dtd">
<svg width="109pt" height="97pt" viewBox="0 0 109 97" version="1.1" xmlns="http://www.w3.org/2000/svg">
<g id="#212650ff">
<path fill="#212650" opacity="1.00" d=" M 8.47 0.00 L 101.50 0.00 C 105.31 1.41 108.97 4.56 108.82 8.97 C 108.89 25.63 108.96 42.31 108.79 58.97 C 108.85 63.53 104.74 66.14 101.13 67.90 C 101.80 73.51 101.32 79.44 98.42 84.41 C 94.54 91.67 86.79 96.50 78.60 97.00 L 75.13 97.00 C 69.05 96.07 63.43 93.27 58.97 89.05 C 53.90 83.09 51.63 75.18 52.96 67.43 C 39.64 67.52 26.32 67.40 13.00 67.51 C 10.05 67.47 6.81 67.61 4.28 65.82 C 1.98 64.32 0.92 61.66 0.00 59.20 L 0.00 9.04 C 0.67 4.55 3.95 0.83 8.47 0.00 M 4.33 9.93 C 4.34 25.98 4.28 42.04 4.36 58.09 C 4.29 61.04 7.05 63.53 9.96 63.39 C 24.71 63.50 39.46 63.35 54.21 63.45 C 55.40 61.40 56.63 59.37 57.92 57.38 C 45.60 57.49 33.28 57.36 20.96 57.46 C 18.39 57.43 15.38 57.63 13.48 55.56 C 11.35 53.63 11.78 50.56 11.71 47.98 C 11.84 37.31 11.63 26.64 11.79 15.97 C 11.72 12.27 15.51 9.71 18.97 10.13 C 42.67 10.17 66.38 10.08 90.08 10.17 C 93.24 10.04 96.36 12.72 96.28 15.96 C 96.42 27.32 96.26 38.68 96.34 50.03 C 96.48 52.07 95.68 53.95 94.84 55.76 C 96.84 58.26 98.54 60.98 100.02 63.81 C 102.32 62.69 105.11 61.04 104.81 58.05 C 104.87 42.01 104.83 25.98 104.84 9.94 C 105.16 6.78 102.26 3.94 99.12 4.23 C 69.38 4.14 39.64 4.18 9.90 4.21 C 6.76 3.93 4.05 6.84 4.33 9.93 M 15.86 15.98 C 15.64 27.34 15.83 38.72 15.77 50.09 C 15.56 51.49 16.21 53.47 17.98 53.26 C 31.63 53.43 45.30 53.24 58.96 53.34 C 63.17 53.71 66.17 50.08 70.11 49.24 C 77.59 46.85 85.63 48.93 92.09 53.04 C 92.48 40.70 92.31 28.34 92.21 15.99 C 92.59 14.20 90.13 14.45 89.06 14.27 C 65.69 14.27 42.31 14.26 18.94 14.28 C 17.88 14.41 15.55 14.29 15.86 15.98 M 70.33 53.44 C 61.18 56.42 55.14 66.60 57.00 76.06 C 58.16 83.41 63.78 89.85 70.90 92.02 C 77.19 93.97 84.47 92.79 89.61 88.61 C 94.60 84.71 97.63 78.41 97.36 72.06 C 97.26 64.56 92.54 57.37 85.74 54.25 C 80.96 51.99 75.32 51.65 70.33 53.44 Z" />
<path fill="#212650" opacity="1.00" d=" M 45.39 21.64 C 58.84 21.66 72.28 21.64 85.73 21.65 C 85.72 23.06 85.70 24.48 85.68 25.89 C 72.27 26.00 58.86 25.93 45.45 25.93 C 45.42 24.50 45.40 23.07 45.39 21.64 Z" />
<path fill="#212650" opacity="1.00" d=" M 45.41 30.16 C 58.84 30.17 72.27 30.10 85.69 30.20 C 85.69 31.61 85.69 33.02 85.70 34.43 C 72.31 34.52 58.92 34.37 45.53 34.51 C 45.49 33.06 45.45 31.61 45.41 30.16 Z" />
<path fill="#212650" opacity="1.00" d=" M 21.02 39.43 C 22.93 39.44 24.85 39.44 26.77 39.46 C 26.77 40.83 26.77 42.20 26.76 43.58 C 24.82 43.58 22.88 43.58 20.94 43.58 C 20.97 42.20 21.00 40.81 21.02 39.43 Z" />
<path fill="#212650" opacity="1.00" d=" M 32.45 39.42 C 34.39 39.44 36.34 39.46 38.29 39.49 C 38.30 40.50 38.30 42.52 38.31 43.53 C 36.35 43.57 34.39 43.57 32.44 43.60 C 32.44 42.21 32.44 40.82 32.45 39.42 Z" />
<path fill="#212650" opacity="1.00" d=" M 45.46 38.88 C 51.26 38.86 57.06 38.86 62.86 38.90 C 62.85 40.25 62.85 41.60 62.84 42.96 C 57.04 43.16 51.23 43.04 45.43 43.09 C 45.43 41.68 45.44 40.28 45.46 38.88 Z" />
<path fill="#212650" opacity="1.00" d=" M 68.29 38.90 C 74.09 38.86 79.89 38.86 85.68 38.89 C 85.70 40.22 85.71 41.56 85.75 42.90 C 79.94 42.98 74.12 43.19 68.31 42.94 C 68.30 41.59 68.30 40.25 68.29 38.90 Z" />
<path fill="#212650" opacity="1.00" d=" M 69.70 77.53 C 73.83 73.28 78.15 69.22 82.15 64.85 C 83.16 65.86 84.18 66.87 85.09 67.97 C 81.10 72.03 77.09 76.09 73.00 80.05 C 71.84 79.29 70.78 78.39 69.70 77.53 Z" />
<path fill="#212650" opacity="1.00" d=" M 68.57 68.15 C 69.57 67.35 70.67 66.76 71.86 66.38 C 72.74 67.14 73.58 67.95 74.40 68.79 C 73.34 69.59 72.20 70.24 70.99 70.74 C 70.14 69.92 69.33 69.06 68.57 68.15 Z" />
<path fill="#212650" opacity="1.00" d=" M 80.77 76.50 C 82.43 74.51 84.55 74.16 86.44 76.06 C 85.61 77.20 84.76 78.32 83.89 79.44 C 82.84 78.47 81.79 77.50 80.77 76.50 Z" />
<path fill="#212650" opacity="1.00" d=" M 26.23 79.13 C 28.03 79.12 29.84 79.11 31.64 79.12 C 31.54 80.09 31.35 82.05 31.25 83.02 C 32.80 84.42 34.88 84.45 36.85 84.51 C 36.82 86.23 36.80 87.95 36.77 89.67 C 34.99 89.67 33.20 89.67 31.41 89.67 C 31.37 91.44 31.34 93.20 31.31 94.97 C 29.50 94.94 27.69 94.91 25.89 94.88 C 25.97 93.32 25.88 91.73 26.21 90.20 C 27.86 89.41 29.76 89.73 31.52 89.53 C 31.54 87.62 31.31 85.69 30.02 84.18 C 29.11 84.24 27.27 84.37 26.36 84.43 C 26.29 85.91 26.11 87.37 25.81 88.82 C 24.37 89.95 22.47 89.57 20.78 89.81 C 20.79 88.01 20.80 86.21 20.82 84.40 C 22.61 84.37 24.39 84.35 26.18 84.33 C 26.19 82.60 26.21 80.86 26.23 79.13 Z" />
</g>
<g id="#5cf8adff">
<path fill="#5cf8ad" opacity="1.00" d=" M 45.45 25.93 C 58.86 25.93 72.27 26.00 85.68 25.89 C 85.69 27.33 85.69 28.76 85.69 30.20 C 72.27 30.10 58.84 30.17 45.41 30.16 C 45.43 28.75 45.44 27.34 45.45 25.93 Z" />
<path fill="#5cf8ad" opacity="1.00" d=" M 45.53 34.51 C 58.92 34.37 72.31 34.52 85.70 34.43 C 85.69 35.92 85.68 37.40 85.68 38.89 C 79.89 38.86 74.09 38.86 68.29 38.90 C 68.30 40.25 68.30 41.59 68.31 42.94 C 66.49 42.93 64.66 42.93 62.84 42.96 C 62.85 41.60 62.85 40.25 62.86 38.90 C 57.06 38.86 51.26 38.86 45.46 38.88 C 45.43 37.42 45.40 35.97 45.38 34.51 L 45.53 34.51 Z" />
<path fill="#5cf8ad" opacity="1.00" d=" M 74.46 56.57 C 83.82 54.46 93.81 62.36 93.77 71.98 C 94.44 80.72 86.74 88.82 78.04 88.87 C 69.72 89.31 61.94 82.42 61.32 74.13 C 60.38 66.02 66.47 58.03 74.46 56.57 M 69.70 77.53 C 70.78 78.39 71.84 79.29 73.00 80.05 C 77.09 76.09 81.10 72.03 85.09 67.97 C 84.18 66.87 83.16 65.86 82.15 64.85 C 78.15 69.22 73.83 73.28 69.70 77.53 M 68.57 68.15 C 69.33 69.06 70.14 69.92 70.99 70.74 C 72.20 70.24 73.34 69.59 74.40 68.79 C 73.58 67.95 72.74 67.14 71.86 66.38 C 70.67 66.76 69.57 67.35 68.57 68.15 M 80.77 76.50 C 81.79 77.50 82.84 78.47 83.89 79.44 C 84.76 78.32 85.61 77.20 86.44 76.06 C 84.55 74.16 82.43 74.51 80.77 76.50 Z" />
</g>
</svg>
