<?xml version="1.0" encoding="UTF-8" ?>
<!DOCTYPE svg PUBLIC "-//W3C//DTD SVG 1.1//EN" "http://www.w3.org/Graphics/SVG/1.1/DTD/svg11.dtd">
<svg width="124pt" height="93pt" viewBox="0 0 124 93" version="1.1" xmlns="http://www.w3.org/2000/svg">
<g id="#212650ff">
<path fill="#212650" opacity="1.00" d=" M 48.46 0.00 L 50.39 0.00 C 52.98 0.61 55.43 1.77 57.37 3.61 C 61.42 7.26 65.78 10.56 69.67 14.39 C 68.88 14.96 67.31 16.12 66.52 16.70 C 61.72 13.13 57.44 8.91 52.74 5.22 C 50.69 3.65 47.47 3.82 45.58 5.58 C 32.28 16.94 18.92 28.23 5.71 39.67 C 3.71 41.28 3.76 44.65 5.84 46.17 C 7.45 47.89 10.43 47.81 12.04 46.15 C 21.82 37.87 31.53 29.52 41.26 21.18 C 43.63 19.01 46.61 17.18 49.96 17.51 C 54.18 17.60 57.16 20.88 60.03 23.52 C 59.12 24.88 58.53 26.48 57.39 27.68 C 57.24 27.20 56.93 26.24 56.77 25.76 C 53.87 23.53 50.33 19.81 46.44 22.37 C 36.18 30.79 26.26 39.62 16.10 48.15 C 16.17 61.05 16.19 73.95 16.14 86.85 C 16.59 87.94 17.60 88.95 18.90 88.72 C 24.26 88.71 29.62 88.77 34.98 88.70 L 35.49 88.27 C 35.62 82.53 35.43 76.79 35.53 71.05 C 44.77 71.14 54.00 70.88 63.24 71.08 C 63.31 76.94 63.17 82.80 63.28 88.65 C 68.84 88.80 74.41 88.68 79.98 88.72 C 81.23 88.94 82.00 87.81 82.80 87.09 C 82.70 84.53 82.74 81.96 82.82 79.40 C 84.15 79.57 85.49 79.72 86.83 79.83 C 86.64 83.12 87.55 86.75 85.83 89.76 C 84.45 92.11 81.61 93.01 79.02 92.85 C 59.01 92.86 39.01 92.89 19.01 92.83 C 15.63 93.05 12.36 90.41 12.07 87.01 C 11.69 75.13 12.44 63.22 11.83 51.35 C 6.41 52.52 0.79 49.10 0.00 43.48 L 0.00 42.50 C 0.61 40.23 1.32 37.80 3.27 36.30 C 16.17 25.17 29.19 14.19 42.11 3.09 C 43.88 1.46 46.16 0.59 48.46 0.00 M 39.95 75.23 C 39.59 79.68 39.42 84.35 40.04 88.77 C 46.31 88.76 52.58 88.79 58.84 88.75 C 59.42 84.32 59.29 79.70 58.92 75.25 C 52.60 75.19 46.27 75.23 39.95 75.23 Z" />
<path fill="#212650" opacity="1.00" d=" M 73.00 27.47 C 76.84 24.60 81.19 22.15 86.04 21.66 C 96.72 20.28 107.70 27.57 110.50 37.99 C 113.06 45.60 110.44 53.94 105.53 59.99 C 104.19 59.27 103.26 58.03 102.16 57.01 C 105.07 53.67 107.08 49.42 107.03 44.93 C 107.49 36.50 101.30 28.16 93.03 26.34 C 87.05 24.89 80.51 26.54 76.00 30.73 C 74.96 29.68 73.90 28.65 73.00 27.47 Z" />
<path fill="#212650" opacity="1.00" d=" M 83.52 34.71 C 89.58 31.18 98.19 35.26 99.38 42.13 C 101.30 49.17 94.26 56.54 87.15 55.30 C 82.03 54.61 77.85 50.12 77.56 44.94 C 77.41 40.80 79.73 36.54 83.52 34.71 M 85.39 38.44 C 81.29 40.57 80.69 46.86 84.45 49.62 C 88.27 53.02 95.32 50.11 95.24 44.89 C 95.99 39.82 89.73 35.80 85.39 38.44 Z" />
<path fill="#212650" opacity="1.00" d=" M 36.81 43.86 C 39.38 37.27 47.68 33.78 54.21 36.43 C 54.14 36.83 53.98 37.63 53.90 38.03 C 53.74 38.59 53.41 39.72 53.25 40.29 C 49.36 39.09 44.68 39.71 42.06 43.08 C 37.79 47.50 39.49 55.47 44.93 58.10 C 48.35 60.17 52.51 59.15 55.72 57.21 C 56.24 58.44 56.78 59.65 57.35 60.85 C 53.39 63.40 48.21 64.20 43.87 62.11 C 37.04 59.37 33.52 50.50 36.81 43.86 Z" />
<path fill="#212650" opacity="1.00" d=" M 23.80 76.90 C 25.16 76.90 26.51 76.89 27.87 76.89 C 27.90 78.32 27.92 79.75 27.94 81.17 C 26.55 81.18 25.17 81.19 23.79 81.19 C 23.79 79.76 23.79 78.33 23.80 76.90 Z" />
<path fill="#212650" opacity="1.00" d=" M 70.85 77.01 C 71.72 76.96 73.44 76.87 74.31 76.82 L 74.88 77.07 C 74.99 78.44 75.09 79.81 75.20 81.18 C 73.75 81.18 72.30 81.18 70.85 81.18 C 70.85 79.79 70.85 78.40 70.85 77.01 Z" />
</g>
<g id="#5cf8adff">
<path fill="#5cf8ad" opacity="1.00" d=" M 69.67 14.39 C 78.62 8.61 90.24 7.26 100.28 10.85 C 114.71 15.71 124.98 30.69 123.88 45.96 C 123.73 64.97 105.76 81.31 86.83 79.83 C 85.49 79.72 84.15 79.57 82.82 79.40 C 80.10 78.91 77.39 78.25 74.88 77.07 L 74.31 76.82 C 67.06 73.62 60.86 67.99 57.35 60.85 C 56.78 59.65 56.24 58.44 55.72 57.21 C 53.08 51.22 52.85 44.41 53.90 38.03 C 53.98 37.63 54.14 36.83 54.21 36.43 C 54.69 33.33 56.01 30.46 57.39 27.68 C 58.53 26.48 59.12 24.88 60.03 23.52 C 61.82 20.92 64.04 18.64 66.52 16.70 C 67.31 16.12 68.88 14.96 69.67 14.39 M 73.00 27.47 C 73.90 28.65 74.96 29.68 76.00 30.73 C 80.51 26.54 87.05 24.89 93.03 26.34 C 101.30 28.16 107.49 36.50 107.03 44.93 C 107.08 49.42 105.07 53.67 102.16 57.01 C 103.26 58.03 104.19 59.27 105.53 59.99 C 110.44 53.94 113.06 45.60 110.50 37.99 C 107.70 27.57 96.72 20.28 86.04 21.66 C 81.19 22.15 76.84 24.60 73.00 27.47 M 83.52 34.71 C 79.73 36.54 77.41 40.80 77.56 44.94 C 77.85 50.12 82.03 54.61 87.15 55.30 C 94.26 56.54 101.30 49.17 99.38 42.13 C 98.19 35.26 89.58 31.18 83.52 34.71 Z" />
<path fill="#5cf8ad" opacity="1.00" d=" M 85.39 38.44 C 89.73 35.80 95.99 39.82 95.24 44.89 C 95.32 50.11 88.27 53.02 84.45 49.62 C 80.69 46.86 81.29 40.57 85.39 38.44 Z" />
</g>
</svg>
