<?xml version="1.0" encoding="UTF-8" ?>
<!DOCTYPE svg PUBLIC "-//W3C//DTD SVG 1.1//EN" "http://www.w3.org/Graphics/SVG/1.1/DTD/svg11.dtd">
<svg width="118pt" height="118pt" viewBox="0 0 118 118" version="1.1" xmlns="http://www.w3.org/2000/svg">
<g id="#212650ff">
<path fill="#212650" opacity="1.00" d=" M 64.93 3.01 C 66.16 0.26 69.57 0.97 71.98 0.84 C 77.59 1.12 83.27 0.39 88.82 1.23 C 92.17 3.22 90.66 7.86 90.94 11.06 C 91.38 13.70 89.36 15.38 87.22 16.35 C 87.20 17.40 87.18 18.44 87.17 19.48 C 91.74 19.43 96.60 20.83 99.40 24.69 C 103.24 29.49 101.99 36.01 102.19 41.69 C 106.78 44.27 111.88 45.91 117.18 45.94 C 117.18 46.89 117.18 48.79 117.18 49.74 C 111.96 49.67 106.82 48.46 102.20 46.02 C 102.30 49.13 102.25 52.29 101.18 55.25 C 102.68 60.08 102.69 65.41 101.17 70.25 C 102.68 75.08 102.69 80.42 101.17 85.25 C 102.32 88.60 102.64 92.28 101.68 95.72 C 100.52 99.39 96.90 102.10 93.04 102.12 C 86.95 102.35 80.85 102.05 74.75 102.25 C 70.96 108.04 65.44 112.74 58.91 115.13 C 47.97 119.35 34.83 116.78 26.24 108.80 C 17.01 100.60 13.66 86.98 17.31 75.29 C 18.58 72.00 20.09 68.78 22.21 65.96 C 29.47 56.52 41.97 51.63 53.70 53.85 C 53.54 52.34 53.39 50.82 53.26 49.30 C 45.82 47.99 39.80 42.27 32.05 42.23 C 25.64 41.54 19.43 43.70 13.97 46.90 C 11.82 47.95 9.55 48.74 7.19 49.14 C 5.10 49.46 2.98 49.58 0.88 49.72 C 0.88 48.78 0.88 46.88 0.88 45.94 C 6.39 45.94 11.61 44.07 16.35 41.40 C 22.34 38.27 29.39 37.79 35.98 38.85 C 42.20 39.81 47.27 44.00 53.35 45.46 C 53.73 39.70 52.53 33.73 54.21 28.13 C 56.16 22.26 62.47 19.16 68.39 19.47 C 68.38 18.70 68.36 17.16 68.35 16.39 C 67.06 15.44 64.95 14.93 64.78 13.03 C 64.48 9.70 64.37 6.31 64.93 3.01 M 68.43 12.12 C 74.66 12.13 80.89 12.12 87.12 12.12 C 87.12 9.64 87.12 7.17 87.12 4.69 C 80.90 4.69 74.67 4.69 68.45 4.69 C 68.44 7.16 68.44 9.64 68.43 12.12 M 72.19 15.95 C 72.19 17.17 72.19 18.40 72.19 19.63 C 75.92 19.63 79.65 19.63 83.38 19.61 C 83.38 18.69 83.37 16.86 83.37 15.94 C 79.64 15.94 75.91 15.94 72.19 15.95 M 57.08 30.74 C 70.83 31.02 84.59 30.86 98.35 30.82 C 97.03 27.15 94.08 23.69 89.92 23.52 C 81.95 23.36 73.96 23.41 65.99 23.49 C 61.68 23.47 58.55 27.00 57.08 30.74 M 57.13 34.69 C 57.12 38.42 57.12 42.15 57.14 45.88 C 60.08 45.79 63.06 45.82 65.93 45.05 C 70.73 43.85 74.75 40.70 79.52 39.41 C 85.70 37.74 92.27 38.16 98.40 39.83 C 98.39 38.12 98.37 36.41 98.36 34.69 C 84.61 34.69 70.87 34.69 57.13 34.69 M 81.75 42.80 C 76.89 43.84 72.85 46.99 68.12 48.42 C 64.50 49.60 60.65 49.59 56.89 49.73 C 57.06 50.45 57.42 51.89 57.60 52.61 C 58.67 53.79 60.59 53.16 62.01 53.40 C 72.36 53.36 82.71 53.35 93.06 53.41 C 94.66 53.34 96.33 53.51 97.85 52.88 C 98.83 50.04 98.25 46.93 98.38 43.97 C 93.07 42.11 87.27 41.62 81.75 42.80 M 42.50 57.67 C 28.27 60.08 17.62 74.75 19.94 89.06 C 21.63 104.11 37.10 115.73 52.04 112.98 C 66.89 111.05 78.17 95.74 75.49 80.98 C 73.53 65.77 57.53 54.38 42.50 57.67 M 63.03 57.13 C 67.77 59.93 71.83 63.77 74.89 68.36 C 81.25 68.38 87.61 68.37 93.97 68.40 C 95.31 68.13 98.02 68.91 98.18 66.90 C 98.37 63.83 99.05 60.24 97.59 57.46 C 86.11 56.77 74.54 57.46 63.03 57.13 M 76.94 72.17 C 78.33 75.77 79.19 79.54 79.66 83.37 C 85.70 83.07 91.87 84.00 97.83 82.90 C 98.84 79.74 98.47 76.25 98.09 72.99 C 97.08 71.83 95.30 72.35 93.95 72.16 C 88.28 72.18 82.61 72.22 76.94 72.17 M 79.64 87.18 C 79.21 91.02 78.30 94.78 76.92 98.38 C 82.91 98.09 89.02 98.99 94.93 97.88 C 99.09 96.24 98.31 91.16 98.30 87.59 C 92.11 86.77 85.86 87.36 79.64 87.18 Z" />
</g>
<g id="#5cf8adff">
<path fill="#5cf8ad" opacity="1.00" d=" M 7.19 49.14 C 9.55 48.74 11.82 47.95 13.97 46.90 C 16.93 49.88 16.36 55.62 12.00 56.88 C 7.61 58.46 3.57 53.88 4.69 49.62 C 5.31 49.50 6.56 49.26 7.19 49.14 Z" />
<path fill="#5cf8ad" opacity="1.00" d=" M 109.36 57.51 C 112.98 55.86 117.50 59.03 117.15 63.00 C 117.17 67.23 111.79 69.97 108.37 67.47 C 104.64 65.23 105.24 58.96 109.36 57.51 Z" />
<path fill="#5cf8ad" opacity="1.00" d=" M 8.79 70.90 C 6.90 66.18 10.97 60.53 16.04 60.86 C 18.98 60.74 21.20 62.89 22.86 65.04 L 22.21 65.96 C 20.09 68.78 18.58 72.00 17.31 75.29 C 14.23 77.13 9.82 74.16 8.79 70.90 Z" />
<path fill="#5cf8ad" opacity="1.00" d=" M 41.36 65.44 C 45.89 63.00 52.02 66.09 53.11 71.03 C 53.86 74.27 53.66 78.49 50.53 80.44 C 47.74 81.55 44.81 82.33 41.94 83.21 C 38.55 84.27 34.59 81.61 34.62 77.99 C 34.54 73.05 37.43 68.27 41.36 65.44 Z" />
<path fill="#5cf8ad" opacity="1.00" d=" M 56.65 83.69 C 57.24 81.56 57.70 78.88 60.10 78.07 C 65.39 76.34 71.11 81.61 70.19 87.02 C 69.46 90.41 68.38 93.76 66.86 96.88 C 64.42 101.08 58.32 101.15 54.97 98.01 C 49.68 94.64 50.44 85.60 56.65 83.69 Z" />
<path fill="#5cf8ad" opacity="1.00" d=" M 33.44 85.45 C 35.42 84.69 37.43 85.76 38.67 87.31 C 40.41 89.94 44.34 88.34 46.20 90.85 C 48.60 93.26 48.08 97.43 45.57 99.56 C 42.17 103.53 35.26 106.01 31.02 101.96 C 28.35 99.52 28.94 95.67 29.68 92.53 C 30.28 89.97 30.39 86.37 33.44 85.45 Z" />
<path fill="#5cf8ad" opacity="1.00" d=" M 106.23 99.16 C 111.00 96.49 117.53 100.58 117.13 106.05 C 117.28 111.64 110.31 115.42 105.68 112.29 C 100.75 109.55 101.07 101.47 106.23 99.16 Z" />
</g>
</svg>
