<?xml version="1.0" encoding="UTF-8" ?>
<!DOCTYPE svg PUBLIC "-//W3C//DTD SVG 1.1//EN" "http://www.w3.org/Graphics/SVG/1.1/DTD/svg11.dtd">
<svg width="85pt" height="99pt" viewBox="0 0 85 99" version="1.1" xmlns="http://www.w3.org/2000/svg">
<g id="#353644ff">
<path fill="#353644" opacity="1.00" d=" M 10.10 22.09 C 14.65 8.60 29.03 -0.07 42.96 0.17 C 57.68 -0.08 72.86 9.74 76.48 24.43 C 78.21 30.12 75.75 36.57 78.93 41.87 C 80.91 45.32 83.64 48.34 85.00 52.14 L 85.00 63.75 C 82.52 71.96 74.70 77.56 66.37 78.61 C 51.27 80.25 35.99 80.21 20.86 78.79 C 14.63 78.18 8.46 75.43 4.43 70.54 C -0.27 64.65 -1.17 56.03 2.11 49.26 C 4.13 45.32 7.92 42.16 8.36 37.54 C 8.72 32.37 8.40 27.06 10.10 22.09 M 36.44 7.70 C 27.87 9.62 19.90 15.52 16.80 23.90 C 14.41 29.75 16.76 36.35 14.35 42.18 C 13.31 45.23 11.42 47.86 9.52 50.42 C 7.06 53.53 6.72 57.81 7.58 61.56 C 8.69 66.56 13.29 70.06 18.07 71.25 C 25.95 72.81 34.01 72.89 42.01 72.90 C 50.46 72.90 58.98 72.91 67.32 71.35 C 73.52 70.14 79.12 64.61 78.70 58.00 C 79.32 51.99 73.66 48.33 71.84 43.13 C 69.03 37.35 71.57 30.68 69.32 24.75 C 65.06 11.65 49.45 4.49 36.44 7.70 Z" />
<path fill="#353644" opacity="1.00" d=" M 28.73 92.32 C 26.78 89.83 29.99 85.83 32.88 87.38 C 35.25 88.93 37.09 91.49 40.01 92.07 C 42.89 92.64 46.21 92.50 48.56 90.53 C 50.70 89.18 52.63 86.16 55.52 87.37 C 56.70 88.44 58.21 90.17 57.06 91.81 C 54.70 95.72 50.37 98.04 46.01 99.00 L 39.57 99.00 C 35.34 98.13 31.14 96.01 28.73 92.32 Z" />
</g>
</svg>
