<?xml version="1.0" encoding="UTF-8" ?>
<!DOCTYPE svg PUBLIC "-//W3C//DTD SVG 1.1//EN" "http://www.w3.org/Graphics/SVG/1.1/DTD/svg11.dtd">
<svg width="77pt" height="77pt" viewBox="0 0 77 77" version="1.1" xmlns="http://www.w3.org/2000/svg">
<g id="#8ce39fff">
<path fill="#8ce39f" opacity="1.00" d=" M 13.38 1.62 C 18.47 0.16 23.83 0.55 29.06 0.61 C 32.76 0.64 36.09 2.86 38.11 5.87 C 39.90 7.98 41.26 11.16 44.34 11.54 C 52.07 12.24 60.50 10.31 67.60 14.34 C 73.54 17.60 75.95 24.66 76.21 31.06 C 76.46 38.37 76.23 45.69 76.23 53.00 C 76.23 59.58 74.05 66.51 68.92 70.89 C 64.53 74.67 58.63 76.21 52.93 76.22 C 43.28 76.27 33.63 76.26 23.99 76.23 C 17.85 76.23 11.42 74.47 6.97 70.05 C 2.45 65.65 0.56 59.21 0.57 53.03 C 0.54 43.69 0.58 34.35 0.55 25.01 C 0.56 19.52 1.05 13.75 3.94 8.93 C 5.98 5.38 9.48 2.80 13.38 1.62 M 18.24 6.29 C 14.75 6.65 11.13 8.11 9.13 11.13 C 6.43 15.17 6.12 20.24 6.11 24.95 C 6.15 34.34 6.10 43.72 6.13 53.10 C 6.15 57.78 7.48 62.71 10.88 66.08 C 14.31 69.47 19.28 70.65 23.96 70.67 C 33.64 70.71 43.31 70.69 52.99 70.68 C 58.09 70.65 63.56 69.10 66.89 65.00 C 70.14 61.14 70.75 55.86 70.70 50.99 C 70.68 44.36 70.92 37.73 70.66 31.11 C 70.37 26.38 68.79 20.92 64.11 18.80 C 56.90 15.62 48.77 18.54 41.35 16.52 C 36.45 14.99 34.96 9.43 31.03 6.69 C 26.91 5.54 22.47 6.19 18.24 6.29 Z" />
<path fill="#8ce39f" opacity="1.00" d=" M 20.24 45.38 C 31.16 45.04 42.11 45.38 53.04 45.22 C 54.81 45.38 57.30 44.74 58.35 46.64 C 59.42 48.37 58.05 50.89 55.95 50.74 C 44.95 50.94 33.92 50.74 22.91 50.83 C 21.43 50.69 19.48 51.08 18.53 49.60 C 17.39 48.14 18.31 45.53 20.24 45.38 Z" />
</g>
</svg>
