<?xml version="1.0" encoding="UTF-8" ?>
<!DOCTYPE svg PUBLIC "-//W3C//DTD SVG 1.1//EN" "http://www.w3.org/Graphics/SVG/1.1/DTD/svg11.dtd">
<svg width="94pt" height="94pt" viewBox="0 0 94 94" version="1.1" xmlns="http://www.w3.org/2000/svg">
<g id="#b7bbdcff">
<path fill="#b7bbdc" opacity="1.00" d=" M 6.08 8.09 C 10.55 3.03 17.42 0.86 24.01 0.80 C 39.34 0.82 54.67 0.82 70.00 0.80 C 76.31 0.90 82.88 3.04 87.33 7.67 C 90.72 11.61 93.62 16.60 93.22 21.99 C 93.15 37.31 93.21 52.63 93.18 67.95 C 93.10 72.47 93.88 77.32 91.50 81.44 C 88.82 87.84 82.77 92.15 76.23 94.00 L 17.50 94.00 C 11.98 92.43 6.72 89.18 3.64 84.24 C 1.54 80.95 0.68 77.07 0.00 73.28 L 0.00 22.34 C 0.70 17.16 2.30 11.88 6.08 8.09 M 22.21 8.26 C 18.15 8.62 14.01 10.12 11.28 13.27 C 8.21 16.70 7.26 21.48 7.31 25.96 C 7.31 40.30 7.32 54.63 7.30 68.96 C 7.38 72.79 7.59 76.92 9.86 80.17 C 12.19 83.99 16.38 86.80 20.95 86.69 C 38.33 86.67 55.71 86.73 73.10 86.64 C 77.95 86.93 81.86 83.15 84.37 79.41 C 86.29 76.65 85.73 73.16 85.82 70.01 C 85.92 54.00 85.87 37.99 85.87 21.97 C 85.97 17.57 83.48 13.39 79.82 11.03 C 75.88 8.10 70.70 8.14 66.02 8.11 C 51.42 8.23 36.81 7.93 22.21 8.26 Z" />
<path fill="#b7bbdc" opacity="1.00" d=" M 39.76 21.81 C 43.78 17.19 52.42 18.00 55.24 23.56 C 56.90 26.62 58.24 29.87 60.34 32.68 C 64.27 33.19 68.37 33.13 72.10 34.59 C 76.73 36.96 78.81 43.51 76.01 47.98 C 73.49 51.12 70.40 53.75 67.59 56.62 C 68.29 61.05 69.70 65.52 69.02 70.04 C 67.70 74.59 62.57 78.12 57.82 76.75 C 54.26 75.99 51.45 73.48 48.09 72.27 C 42.87 71.90 39.22 77.25 33.99 77.01 C 29.86 76.99 25.64 74.17 24.83 69.97 C 23.92 65.62 25.29 61.26 26.15 57.02 C 23.44 53.32 19.18 50.95 16.98 46.87 C 16.26 43.52 16.27 39.56 18.86 36.97 C 22.37 32.18 29.16 34.23 33.89 32.04 C 36.44 28.99 37.04 24.74 39.76 21.81 M 45.27 26.27 C 42.76 30.68 41.35 36.19 36.82 39.04 C 32.67 40.42 28.19 40.41 23.95 41.50 C 24.02 42.51 24.09 43.52 24.17 44.53 C 27.87 48.00 32.78 51.41 33.31 56.89 C 32.96 60.91 31.93 64.85 31.86 68.91 C 32.42 69.16 33.54 69.65 34.09 69.90 C 37.78 68.38 41.01 65.67 44.95 64.87 C 50.54 63.76 54.92 67.98 59.73 70.00 C 60.68 69.22 62.40 68.64 61.87 67.05 C 61.58 62.47 59.31 57.74 61.27 53.26 C 63.59 49.75 67.09 47.25 69.78 44.06 C 69.81 43.61 69.88 42.71 69.91 42.26 C 66.78 39.63 62.13 40.95 58.46 39.46 C 52.55 37.80 51.06 31.11 48.42 26.38 C 47.37 26.34 46.32 26.31 45.27 26.27 Z" />
</g>
</svg>
