<?xml version="1.0" encoding="UTF-8" ?>
<!DOCTYPE svg PUBLIC "-//W3C//DTD SVG 1.1//EN" "http://www.w3.org/Graphics/SVG/1.1/DTD/svg11.dtd">
<svg width="122pt" height="122pt" viewBox="0 0 122 122" version="1.1" xmlns="http://www.w3.org/2000/svg">
<g id="#10b46cff">
<path fill="#10b46c" opacity="1.00" d=" M 49.52 1.76 C 63.94 -1.22 79.35 1.38 92.01 8.88 C 105.64 16.64 115.78 30.15 119.81 45.27 C 122.14 52.56 122.01 60.37 121.56 67.93 C 119.79 85.81 109.30 102.56 94.10 112.13 C 82.62 119.52 68.58 122.85 55.00 121.31 C 43.68 119.83 32.55 115.60 23.74 108.24 C 21.40 105.44 22.43 100.26 26.13 99.14 C 29.44 97.59 32.33 100.53 34.99 102.06 C 45.57 109.23 59.08 111.32 71.51 108.78 C 85.27 105.93 97.64 96.82 104.31 84.42 C 108.62 76.13 110.85 66.68 110.14 57.32 C 108.92 45.80 104.12 34.43 95.60 26.41 C 84.65 15.40 68.17 10.34 52.92 13.16 C 40.75 15.26 29.57 22.25 22.20 32.14 C 14.96 42.09 11.26 54.75 12.94 67.02 C 13.43 69.67 13.16 73.05 10.58 74.56 C 7.63 76.89 2.77 74.98 1.81 71.47 C 0.06 60.08 1.13 48.16 5.66 37.51 C 13.17 19.30 30.19 5.50 49.52 1.76 Z" />
<path fill="#10b46c" opacity="1.00" d=" M 50.18 37.25 C 56.31 35.79 62.78 37.00 69.04 36.97 C 77.79 36.86 85.68 44.33 86.25 52.98 C 86.38 59.58 86.42 66.21 85.60 72.77 C 84.58 77.68 77.01 78.32 74.93 73.94 C 73.69 66.86 75.45 59.63 74.57 52.53 C 73.72 50.71 72.17 49.15 70.14 48.75 C 63.58 47.90 56.82 49.13 50.36 47.45 C 46.22 45.66 46.17 39.22 50.18 37.25 Z" />
<path fill="#10b46c" opacity="1.00" d=" M 57.48 57.38 C 60.75 55.31 65.88 58.05 65.72 62.03 C 66.11 64.95 63.88 67.10 61.87 68.82 C 55.98 73.97 50.74 79.83 44.67 84.77 C 41.84 87.17 36.52 85.84 35.88 81.98 C 34.81 77.50 38.88 74.42 41.75 71.75 C 47.14 67.13 51.77 61.63 57.48 57.38 Z" />
</g>
</svg>
