<?xml version="1.0" encoding="UTF-8" ?>
<!DOCTYPE svg PUBLIC "-//W3C//DTD SVG 1.1//EN" "http://www.w3.org/Graphics/SVG/1.1/DTD/svg11.dtd">
<svg width="139pt" height="117pt" viewBox="0 0 139 117" version="1.1" xmlns="http://www.w3.org/2000/svg">
<g id="#212650ff">
<path fill="#212650" opacity="1.00" d=" M 122.78 0.48 C 125.53 0.45 128.29 0.44 131.05 0.42 C 131.03 3.19 131.01 5.96 131.00 8.74 C 128.42 8.47 125.45 9.35 123.17 7.83 C 122.47 5.45 122.88 2.92 122.78 0.48 Z" />
<path fill="#212650" opacity="1.00" d=" M 57.57 11.51 C 61.49 6.98 68.49 5.31 73.94 7.92 C 76.88 9.22 79.15 11.68 82.13 12.89 C 86.76 13.32 91.87 12.09 96.03 14.83 C 100.94 17.35 102.91 22.90 103.46 28.07 C 103.63 31.64 106.83 33.61 109.06 35.92 C 113.24 39.94 114.69 46.71 112.01 51.94 C 110.39 55.63 106.34 58.48 107.13 62.95 C 107.70 68.38 106.31 74.35 101.78 77.80 C 98.24 80.94 93.23 80.48 89.08 82.11 C 85.31 85.05 82.60 89.76 77.48 90.61 C 72.28 92.22 67.28 89.63 63.05 86.87 C 61.87 85.68 59.67 86.37 59.50 88.06 C 58.83 93.68 58.92 99.36 58.70 105.01 C 58.50 107.42 59.18 109.74 60.19 111.90 C 64.55 110.24 68.34 106.99 73.03 106.29 C 77.59 106.40 80.74 110.49 85.07 111.50 C 86.02 110.83 87.32 110.19 87.51 108.90 C 88.40 102.89 87.37 96.68 88.85 90.74 C 90.40 90.38 93.03 89.55 93.06 92.01 C 93.65 98.33 93.22 104.77 92.64 111.09 C 92.40 114.30 89.54 116.27 86.66 117.00 L 85.34 117.00 C 81.01 115.69 77.18 113.21 73.07 111.40 C 69.70 112.92 66.58 115.03 63.00 116.04 C 58.70 117.17 54.11 113.52 54.02 109.12 C 53.74 102.44 54.26 95.74 54.35 89.05 C 54.28 85.24 57.06 81.51 60.99 81.20 C 66.37 80.37 69.62 86.92 75.06 85.93 C 81.15 85.47 82.72 77.57 88.57 76.53 C 92.56 75.55 97.57 75.95 100.21 72.17 C 103.95 67.51 99.70 60.89 102.98 56.04 C 105.05 52.55 108.89 49.45 108.23 44.95 C 107.65 38.91 99.95 37.36 98.74 31.65 C 97.74 27.78 98.29 22.97 94.86 20.19 C 90.20 15.77 83.07 20.51 78.06 16.96 C 74.63 14.84 71.47 11.03 66.99 11.80 C 61.04 12.64 59.48 20.32 53.63 21.34 C 49.77 22.27 45.00 21.83 42.31 25.32 C 38.59 29.37 41.57 35.16 40.23 39.91 C 38.97 43.13 36.26 45.47 34.71 48.52 C 33.25 51.77 34.14 55.81 36.91 58.08 C 38.40 59.93 41.56 61.49 40.49 64.31 C 38.10 66.79 35.40 64.24 33.52 62.47 C 28.66 57.85 27.47 49.72 31.23 44.09 C 32.91 41.25 35.86 38.71 35.24 35.08 C 34.88 30.41 35.26 25.29 38.68 21.72 C 41.64 17.88 46.67 17.17 51.13 16.43 C 54.04 16.10 55.62 13.34 57.57 11.51 Z" />
<path fill="#212650" opacity="1.00" d=" M 114.64 8.53 C 117.35 8.60 120.07 8.65 122.74 9.22 C 122.86 11.75 122.79 14.29 122.74 16.82 C 125.47 16.81 128.19 16.81 130.91 16.81 C 130.95 14.09 130.98 11.38 131.01 8.67 C 133.68 8.67 136.34 8.68 139.00 8.68 L 139.00 16.77 C 136.30 16.81 133.60 16.82 130.91 16.84 C 130.87 19.53 130.84 22.23 130.81 24.92 C 128.06 24.92 125.32 24.93 122.58 24.95 C 122.61 22.23 122.64 19.52 122.66 16.80 C 119.95 16.82 117.24 16.83 114.54 16.84 C 114.57 14.07 114.61 11.30 114.64 8.53 Z" />
<path fill="#212650" opacity="1.00" d=" M 75.11 34.71 C 72.29 33.89 73.80 30.66 75.50 29.46 C 81.07 31.27 86.39 34.73 88.83 40.25 C 93.02 48.47 90.38 59.48 82.82 64.80 C 77.02 69.08 68.85 69.82 62.40 66.57 C 57.33 64.22 53.60 59.46 52.14 54.11 C 49.61 45.57 53.84 35.33 61.99 31.51 C 64.34 30.35 65.39 32.91 65.86 34.70 C 61.97 37.56 57.67 40.86 56.87 45.96 C 54.85 54.24 61.68 62.98 70.08 63.46 C 78.82 64.30 87.05 55.81 85.54 47.07 C 85.04 41.16 80.37 36.77 75.11 34.71 Z" />
<path fill="#212650" opacity="1.00" d=" M 41.49 73.65 C 43.13 72.69 45.96 73.88 45.38 76.02 C 45.49 78.00 42.56 79.42 41.24 77.84 C 39.78 76.89 39.96 74.34 41.49 73.65 Z" />
</g>
<g id="#5cf8adff">
<path fill="#5cf8ad" opacity="1.00" d=" M 0.00 99.68 C 0.75 92.27 7.46 86.01 14.99 86.27 C 22.83 86.10 29.88 93.14 29.73 100.98 C 30.08 109.29 22.29 116.71 14.01 115.96 C 6.84 115.72 0.77 109.65 0.00 102.61 L 0.00 99.68 Z" />
</g>
</svg>
