<?xml version="1.0" encoding="UTF-8" ?>
<!DOCTYPE svg PUBLIC "-//W3C//DTD SVG 1.1//EN" "http://www.w3.org/Graphics/SVG/1.1/DTD/svg11.dtd">
<svg width="95pt" height="94pt" viewBox="0 0 95 94" version="1.1" xmlns="http://www.w3.org/2000/svg">
<g id="#b7bbdcff">
<path fill="#b7bbdc" opacity="1.00" d=" M 33.39 5.30 C 38.82 1.04 46.25 -1.03 52.99 0.93 C 56.90 1.87 60.37 4.04 63.48 6.52 C 71.19 12.49 79.08 18.22 86.75 24.23 C 91.35 27.78 93.91 33.29 95.00 38.88 L 95.00 74.11 C 93.96 84.00 85.84 92.34 76.10 94.00 L 19.55 94.00 C 9.20 92.62 0.80 83.50 0.00 73.12 L 0.00 42.60 C 0.12 35.70 2.85 28.62 8.40 24.31 C 16.67 17.89 25.10 11.69 33.39 5.30 M 42.36 8.60 C 39.66 9.60 37.46 11.50 35.19 13.19 C 27.98 18.71 20.72 24.15 13.48 29.63 C 10.00 32.31 7.72 36.57 7.66 40.99 C 7.64 51.32 7.66 61.66 7.66 71.99 C 7.42 79.72 14.37 86.65 22.01 86.79 C 38.67 86.81 55.34 86.77 72.00 86.81 C 79.67 87.27 87.30 80.78 87.44 72.98 C 87.46 61.99 87.50 50.99 87.43 40.00 C 87.20 33.89 82.28 29.59 77.56 26.45 C 70.71 21.26 63.84 16.09 56.98 10.90 C 52.92 7.72 47.20 6.60 42.36 8.60 Z" />
<path fill="#b7bbdc" opacity="1.00" d=" M 26.13 48.14 C 28.43 47.08 31.55 49.50 31.29 52.03 C 31.32 55.01 31.50 58.02 31.07 60.98 C 30.14 63.97 25.61 64.42 23.99 61.81 C 23.26 58.28 23.50 54.62 23.68 51.05 C 23.69 49.61 24.95 48.68 26.13 48.14 Z" />
<path fill="#b7bbdc" opacity="1.00" d=" M 47.17 48.20 C 49.21 47.17 51.94 48.84 52.26 51.02 C 52.48 54.31 52.58 57.63 52.14 60.90 C 51.57 64.40 45.52 64.38 44.87 60.92 C 44.41 57.99 44.57 55.00 44.65 52.04 C 44.55 50.39 45.59 48.72 47.17 48.20 Z" />
<path fill="#b7bbdc" opacity="1.00" d=" M 66.01 60.02 C 66.13 55.74 64.16 48.82 69.98 47.57 C 71.35 48.44 73.57 49.08 73.55 51.07 C 73.68 54.47 73.94 57.93 73.35 61.31 C 72.16 64.91 65.96 63.85 66.01 60.02 Z" />
</g>
</svg>
