<?xml version="1.0" encoding="UTF-8" ?>
<!DOCTYPE svg PUBLIC "-//W3C//DTD SVG 1.1//EN" "http://www.w3.org/Graphics/SVG/1.1/DTD/svg11.dtd">
<svg width="257pt" height="426pt" viewBox="0 0 257 426" version="1.1" xmlns="http://www.w3.org/2000/svg">
<g id="#01180dff">
<path fill="#01180d" opacity="1.00" d=" M 111.88 1.60 C 115.96 -0.37 120.62 0.96 124.54 2.68 C 157.07 16.78 189.69 30.67 222.18 44.86 C 229.12 48.51 236.52 51.15 243.59 54.52 C 248.51 56.88 253.33 61.13 253.76 66.90 C 254.19 76.96 255.39 86.97 255.91 97.03 C 256.34 102.02 252.84 106.32 248.83 108.83 C 247.57 109.80 245.58 110.53 245.70 112.44 C 241.93 177.25 238.18 242.07 234.41 306.88 C 233.98 311.55 231.48 315.97 227.55 318.57 C 220.44 323.55 213.29 328.49 206.13 333.40 C 199.98 330.73 193.97 327.73 187.72 325.30 C 186.47 324.64 185.37 325.82 184.36 326.38 C 176.88 331.61 169.36 336.77 161.83 341.92 C 161.04 342.61 159.76 343.18 159.72 344.39 C 159.12 351.91 158.62 359.45 157.82 366.95 C 152.61 370.35 147.55 373.96 142.45 377.51 C 130.93 386.39 114.73 387.53 101.30 382.77 C 92.08 378.83 83.31 373.93 74.10 369.97 C 69.52 373.11 65.03 376.38 60.45 379.52 C 57.26 381.68 54.47 384.65 50.61 385.60 C 45.09 387.60 39.06 386.29 33.77 384.20 C 24.24 380.04 16.70 372.38 10.93 363.87 C 8.24 365.59 3.78 366.51 2.17 362.95 C 3.67 360.75 6.16 359.94 8.74 360.05 C 3.14 350.76 0.01 339.82 0.73 328.93 C 1.29 322.37 4.19 315.64 9.74 311.80 C 15.39 307.99 21.05 304.19 26.61 300.25 C 25.77 282.53 25.21 264.79 24.82 247.04 C 23.46 208.68 22.24 170.30 21.09 131.93 C 19.67 129.98 16.98 129.36 15.16 127.78 C 12.14 125.46 9.69 121.96 9.64 118.03 C 9.32 107.54 9.58 97.02 8.86 86.56 C 9.47 80.18 15.18 76.34 20.11 73.20 C 19.72 67.11 21.02 60.15 26.05 56.15 C 50.99 40.46 75.70 24.35 100.58 8.54 C 104.31 6.18 107.87 3.50 111.88 1.60 M 111.43 5.63 C 86.26 21.73 61.14 37.93 35.96 54.02 C 40.17 55.10 43.98 57.25 48.00 58.85 C 60.54 64.19 72.89 69.97 85.44 75.28 C 85.54 75.32 85.73 75.41 85.82 75.46 C 96.94 80.61 108.24 85.43 119.45 90.40 C 119.52 90.43 119.65 90.49 119.72 90.52 C 122.60 91.84 125.46 93.22 128.44 94.29 C 128.54 94.33 128.73 94.42 128.83 94.47 C 131.58 96.07 134.57 97.19 137.54 98.29 C 137.64 98.33 137.84 98.42 137.93 98.47 L 139.55 99.35 C 139.61 99.38 139.72 99.44 139.78 99.48 C 144.12 101.63 147.45 105.20 150.70 108.70 C 153.96 106.19 157.71 104.30 160.76 101.53 C 162.50 102.03 163.29 101.44 163.15 99.75 L 163.60 99.54 C 165.29 100.05 166.16 99.47 166.23 97.79 C 168.63 96.91 170.78 95.30 172.62 93.56 C 174.26 94.08 175.09 93.51 175.11 91.84 C 178.54 90.33 181.69 87.96 184.56 85.56 C 186.22 86.06 187.08 85.49 187.16 83.82 C 190.55 82.30 193.50 79.85 196.59 77.78 C 199.80 76.18 202.80 74.17 205.50 71.80 C 206.44 71.29 207.34 70.70 208.18 70.02 C 211.45 68.41 214.46 66.30 217.25 63.96 C 217.53 63.78 218.08 63.42 218.35 63.24 C 222.55 61.19 226.01 57.95 230.06 55.65 C 227.09 52.30 223.65 49.30 219.47 47.58 C 187.04 33.55 154.60 19.53 122.15 5.55 C 118.85 3.94 114.58 3.39 111.43 5.63 M 234.00 54.16 C 238.21 60.91 242.25 68.07 242.81 76.21 C 246.88 74.18 251.49 69.58 249.35 64.67 C 246.47 58.68 239.57 56.76 234.00 54.16 M 27.06 60.04 C 23.95 63.66 23.82 68.67 23.74 73.20 C 67.63 93.01 111.64 112.59 155.66 132.13 C 154.64 119.11 146.81 105.81 134.20 101.12 C 102.04 86.87 69.91 72.59 37.76 58.35 C 34.29 56.87 29.66 56.98 27.06 60.04 M 18.43 78.51 C 15.28 80.65 11.92 84.15 12.83 88.29 C 13.95 91.95 17.11 94.69 20.51 96.22 C 22.73 97.52 25.22 98.29 27.54 99.39 C 27.59 99.41 27.70 99.46 27.76 99.49 C 30.93 101.03 34.12 102.53 37.41 103.79 C 43.30 106.97 49.45 109.71 55.74 111.99 C 58.88 113.55 62.06 115.04 65.32 116.32 C 65.40 116.36 65.57 116.43 65.66 116.47 C 68.52 117.93 71.48 119.17 74.42 120.45 C 74.48 120.47 74.60 120.53 74.66 120.55 C 77.88 122.09 81.13 123.61 84.46 124.92 C 87.94 127.10 91.76 128.68 95.66 129.92 L 96.49 130.37 C 96.56 130.40 96.68 130.47 96.75 130.50 C 99.59 131.92 102.49 133.21 105.46 134.33 C 105.56 134.37 105.75 134.46 105.85 134.50 L 107.44 135.37 C 107.48 135.39 107.57 135.42 107.61 135.44 L 108.32 135.68 C 114.80 139.63 122.43 141.54 129.99 141.68 C 137.82 141.78 146.13 140.52 152.63 135.86 L 153.67 135.44 C 149.90 133.96 146.30 132.10 142.52 130.65 C 142.43 130.60 142.24 130.51 142.14 130.47 C 127.37 123.66 112.47 117.08 97.56 110.55 C 97.50 110.52 97.39 110.47 97.33 110.44 L 95.75 109.71 C 95.68 109.67 95.52 109.60 95.44 109.56 C 92.52 108.16 89.55 106.85 86.56 105.60 C 86.50 105.57 86.37 105.51 86.31 105.48 C 79.39 102.31 72.48 99.12 65.45 96.20 C 60.30 93.31 54.83 90.97 49.27 89.00 C 47.16 87.89 44.98 86.89 42.75 86.05 C 36.52 82.53 29.63 80.29 23.21 77.10 C 21.49 75.97 19.86 77.69 18.43 78.51 M 161.27 130.55 C 161.30 131.99 161.33 133.43 161.37 134.88 C 167.01 131.38 172.43 127.55 178.00 123.96 C 198.19 110.35 218.73 97.22 238.76 83.37 C 238.64 82.40 238.42 80.46 238.30 79.50 C 212.67 96.58 187.03 113.65 161.27 130.55 M 13.08 95.88 C 13.20 103.21 13.12 110.54 13.41 117.86 C 14.04 123.15 19.10 126.27 23.54 128.25 C 51.34 140.76 79.06 153.44 106.85 165.98 C 112.24 168.47 117.63 171.22 123.53 172.28 C 128.10 172.96 132.72 173.28 137.34 173.16 C 137.12 163.80 136.65 154.45 136.02 145.11 C 130.38 145.41 124.69 145.06 119.16 143.91 C 112.79 142.55 107.11 139.25 101.15 136.76 C 74.04 124.55 46.92 112.36 19.80 100.16 C 17.38 99.03 15.20 97.48 13.08 95.88 M 154.69 167.31 C 151.37 169.54 147.61 171.03 143.72 171.89 C 143.74 173.18 143.76 174.47 143.80 175.77 C 148.31 174.63 152.82 173.14 156.67 170.44 C 185.11 151.52 213.57 132.61 242.01 113.67 C 241.93 112.25 241.84 110.83 241.76 109.41 C 212.77 128.76 183.69 147.97 154.69 167.31 M 24.77 133.13 C 26.30 167.39 26.91 201.70 28.36 235.96 C 28.98 256.11 29.53 276.27 30.31 296.41 C 45.50 299.40 57.36 310.92 65.70 323.38 C 73.67 336.13 79.55 351.30 77.15 366.56 C 84.27 370.23 91.54 373.58 98.75 377.07 C 104.88 380.18 111.86 381.87 118.75 381.34 C 122.35 377.52 122.17 371.94 122.47 367.06 C 127.85 303.54 132.83 239.98 138.35 176.47 C 129.70 177.16 120.80 176.46 112.80 172.89 C 85.64 160.55 58.47 148.22 31.31 135.88 C 29.17 134.86 27.02 133.87 24.77 133.13 M 207.99 187.83 C 195.71 195.95 183.59 204.34 171.43 212.64 C 168.14 214.86 165.90 218.54 165.63 222.52 C 162.66 261.87 158.97 301.17 156.20 340.52 C 157.61 339.45 159.01 338.37 160.42 337.29 C 163.32 299.17 166.61 261.09 169.70 222.99 C 169.76 220.36 171.03 217.76 173.20 216.23 C 179.71 211.59 186.46 207.29 192.90 202.55 C 190.20 241.91 187.49 281.28 184.71 320.64 C 186.34 320.62 188.02 320.57 189.55 321.27 C 195.00 323.48 200.31 326.00 205.75 328.22 C 206.61 327.60 207.46 326.98 208.32 326.36 C 211.15 281.90 214.02 237.45 216.85 192.99 C 217.35 188.44 211.69 185.62 207.99 187.83 M 17.65 312.88 C 10.73 313.61 5.89 320.18 5.08 326.74 C 3.21 340.17 8.48 353.62 16.31 364.33 C 22.46 372.47 30.71 379.79 40.91 382.06 C 46.15 383.34 52.21 381.86 55.67 377.56 C 59.49 373.00 60.33 366.74 60.07 360.98 C 58.79 345.05 50.32 330.04 37.95 320.04 C 32.17 315.69 25.11 311.98 17.65 312.88 Z" />
<path fill="#01180d" opacity="1.00" d=" M 108.29 30.00 C 116.10 28.46 123.45 32.34 130.32 35.49 L 130.48 35.57 L 130.66 35.64 C 138.26 38.86 145.80 42.22 153.39 45.48 C 153.44 45.50 153.55 45.55 153.61 45.57 C 156.56 46.84 159.51 48.12 162.44 49.43 C 162.49 49.45 162.58 49.49 162.63 49.51 C 167.76 52.28 174.24 53.21 178.09 57.91 C 180.46 60.67 179.15 64.94 176.27 66.77 C 171.01 70.19 166.08 74.63 159.77 75.97 C 154.56 77.11 149.02 76.35 144.13 74.28 C 127.61 67.01 111.08 59.73 94.54 52.50 C 91.94 51.41 89.61 49.76 87.79 47.60 C 86.33 44.82 87.45 41.10 90.09 39.49 C 91.37 38.93 92.53 38.12 93.50 37.12 L 93.65 37.00 C 98.22 34.09 102.85 30.99 108.29 30.00 M 98.59 38.11 C 97.43 38.72 96.24 39.38 95.43 40.43 C 93.77 40.02 92.90 40.62 92.81 42.22 L 91.92 42.34 L 91.41 43.31 C 91.39 43.36 91.35 43.45 91.32 43.49 L 90.64 44.82 C 91.47 46.32 92.53 47.74 94.21 48.33 C 111.37 55.94 128.61 63.42 145.78 71.02 C 149.63 72.78 153.99 73.27 158.16 72.56 C 163.04 72.08 166.94 68.81 170.80 66.11 L 171.39 65.70 C 171.46 65.66 171.59 65.57 171.65 65.53 C 173.36 64.49 175.75 63.26 175.44 60.84 C 173.06 57.09 168.23 56.48 164.55 54.58 C 164.48 54.54 164.35 54.48 164.28 54.45 C 153.74 49.73 143.14 45.12 132.51 40.61 C 132.45 40.58 132.32 40.52 132.26 40.50 C 127.76 38.35 123.16 36.44 118.56 34.56 C 118.47 34.53 118.30 34.47 118.22 34.43 L 117.46 34.13 C 111.08 32.10 103.51 33.42 98.59 38.11 Z" />
<path fill="#01180d" opacity="1.00" d=" M 39.85 153.54 C 43.09 152.57 46.08 154.50 48.95 155.70 C 52.52 157.43 56.65 158.64 59.13 161.96 C 61.66 164.97 62.99 168.87 62.93 172.80 C 63.23 186.56 63.83 200.32 64.18 214.09 C 64.32 217.22 63.77 221.11 60.60 222.64 C 58.01 224.35 55.02 222.77 52.57 221.61 C 49.42 220.00 46.04 218.83 43.05 216.93 C 38.78 213.74 36.59 208.28 36.67 203.03 C 36.42 189.04 35.85 175.05 35.68 161.05 C 35.49 158.04 36.94 154.73 39.85 153.54 M 39.52 160.08 C 39.39 174.45 40.35 188.80 40.50 203.17 C 40.51 208.03 43.17 213.10 47.77 215.06 C 51.05 216.45 54.15 218.28 57.52 219.47 C 59.03 219.92 60.14 218.42 60.18 217.06 C 60.66 211.07 60.02 205.06 59.78 199.08 C 59.65 190.61 59.32 182.14 59.22 173.67 C 59.21 169.33 57.48 164.67 53.73 162.23 C 49.84 160.07 45.64 158.56 41.66 156.60 C 40.49 157.43 39.43 158.53 39.52 160.08 Z" />
<path fill="#01180d" opacity="1.00" d=" M 228.81 325.18 C 228.61 320.69 235.39 320.04 237.68 322.87 C 237.29 326.98 231.60 327.08 228.81 325.18 Z" />
<path fill="#01180d" opacity="1.00" d=" M 22.16 327.93 C 25.71 326.53 29.81 326.84 33.15 328.67 C 41.26 332.88 46.72 341.17 48.73 349.95 C 49.29 354.60 49.62 359.96 46.35 363.76 C 43.11 368.27 36.49 368.60 31.87 366.17 C 22.81 361.57 16.67 351.94 15.61 341.91 C 15.10 336.63 16.75 330.07 22.16 327.93 M 27.44 331.06 C 26.42 342.43 33.95 354.27 44.85 357.84 C 45.60 352.77 44.26 347.63 41.72 343.25 C 38.60 337.72 33.82 332.60 27.44 331.06 Z" />
<path fill="#01180d" opacity="1.00" d=" M 245.25 331.98 C 246.76 328.41 254.31 327.55 254.50 332.09 C 252.21 334.82 247.32 335.14 245.25 331.98 Z" />
<path fill="#01180d" opacity="1.00" d=" M 213.27 334.34 C 214.97 331.40 220.61 330.96 222.24 334.11 C 221.60 337.01 218.13 336.96 215.81 337.39 C 214.82 336.50 213.00 336.00 213.27 334.34 Z" />
<path fill="#01180d" opacity="1.00" d=" M 182.38 335.67 C 184.57 334.51 187.21 334.60 189.31 335.92 C 190.81 339.73 184.86 340.86 182.31 339.59 C 180.27 339.11 180.68 336.32 182.38 335.67 Z" />
<path fill="#01180d" opacity="1.00" d=" M 234.08 339.77 C 236.00 339.38 239.47 340.33 238.96 342.87 C 237.49 345.18 234.37 344.88 232.01 344.72 C 230.49 344.63 229.68 342.77 230.52 341.56 C 231.51 340.65 232.77 340.04 234.08 339.77 Z" />
<path fill="#01180d" opacity="1.00" d=" M 197.09 346.09 C 198.58 342.47 204.81 341.13 206.59 344.98 C 205.30 348.76 199.54 348.60 197.09 346.09 Z" />
<path fill="#01180d" opacity="1.00" d=" M 167.26 346.28 C 169.45 344.91 174.57 345.46 173.97 348.83 C 172.22 351.10 168.90 351.01 166.38 350.42 C 164.29 349.53 165.38 346.68 167.26 346.28 Z" />
<path fill="#01180d" opacity="1.00" d=" M 247.52 352.42 C 244.79 347.27 256.16 345.73 255.73 350.76 C 254.16 353.73 250.23 352.72 247.52 352.42 Z" />
<path fill="#01180d" opacity="1.00" d=" M 214.44 354.03 C 215.08 349.82 221.83 349.61 223.87 353.02 C 222.07 356.19 216.59 357.15 214.44 354.03 Z" />
<path fill="#01180d" opacity="1.00" d=" M 181.71 355.91 C 184.04 353.32 187.73 353.17 190.72 354.66 C 191.26 359.11 185.77 359.19 182.71 358.41 C 182.46 357.79 181.96 356.54 181.71 355.91 Z" />
<path fill="#01180d" opacity="1.00" d=" M 232.52 359.70 C 234.80 357.93 240.80 357.96 240.13 361.93 C 238.31 364.01 235.10 364.12 232.64 363.39 C 230.93 362.69 231.14 360.60 232.52 359.70 Z" />
<path fill="#01180d" opacity="1.00" d=" M 201.95 361.71 C 203.89 361.30 206.12 361.51 207.53 363.07 C 208.11 366.92 202.42 367.36 199.89 366.22 C 197.16 364.72 200.03 362.14 201.95 361.71 Z" />
<path fill="#01180d" opacity="1.00" d=" M 166.80 365.79 C 169.34 364.45 172.81 363.72 175.02 366.09 C 175.22 370.30 168.08 370.96 165.98 367.97 C 166.18 367.43 166.59 366.34 166.80 365.79 Z" />
<path fill="#01180d" opacity="1.00" d=" M 215.21 373.07 C 216.11 371.17 217.71 369.58 219.97 369.70 C 221.75 369.28 225.28 370.26 224.51 372.63 C 222.48 375.74 217.73 375.38 215.21 373.07 Z" />
<path fill="#01180d" opacity="1.00" d=" M 184.38 373.50 C 186.28 372.49 188.84 372.17 190.77 373.29 C 192.16 373.62 192.12 375.43 191.27 376.25 C 189.38 378.25 186.17 378.19 183.81 377.12 C 182.55 376.04 182.87 374.14 184.38 373.50 Z" />
<path fill="#01180d" opacity="1.00" d=" M 68.52 374.73 C 70.47 373.63 72.74 372.70 74.99 373.47 C 76.75 373.49 77.73 376.17 76.13 377.11 C 73.82 378.95 70.36 378.78 67.99 377.12 C 68.12 376.52 68.39 375.33 68.52 374.73 Z" />
<path fill="#01180d" opacity="1.00" d=" M 149.82 378.84 C 150.97 375.36 154.87 375.24 157.93 375.65 C 158.34 376.23 159.17 377.40 159.58 377.98 C 157.32 381.10 152.53 381.70 149.82 378.84 Z" />
<path fill="#01180d" opacity="1.00" d=" M 2.75 382.96 C 2.81 378.65 9.76 377.74 11.70 380.95 C 11.80 384.38 7.26 384.30 4.82 384.35 C 4.30 384.00 3.27 383.31 2.75 382.96 Z" />
<path fill="#01180d" opacity="1.00" d=" M 84.35 384.07 C 86.35 381.29 92.59 379.67 93.85 383.74 C 92.38 387.51 86.15 387.67 84.35 384.07 Z" />
<path fill="#01180d" opacity="1.00" d=" M 203.01 380.77 C 204.95 380.36 207.53 380.38 208.70 382.29 C 209.00 386.12 203.52 386.35 200.93 385.26 C 198.56 383.59 201.06 381.19 203.01 380.77 Z" />
<path fill="#01180d" opacity="1.00" d=" M 168.32 384.50 C 170.73 382.76 174.05 383.31 176.33 384.99 C 175.71 388.86 170.96 389.34 167.96 388.11 C 166.82 387.13 167.06 385.25 168.32 384.50 Z" />
<path fill="#01180d" opacity="1.00" d=" M 54.01 384.89 C 56.24 384.17 59.74 383.54 61.07 386.05 C 60.50 389.79 55.06 390.44 52.46 388.38 C 51.71 386.96 52.46 385.29 54.01 384.89 Z" />
<path fill="#01180d" opacity="1.00" d=" M 19.21 390.03 C 20.30 387.02 24.05 387.24 26.66 387.30 C 27.15 387.76 28.13 388.67 28.61 389.13 C 27.29 392.90 20.72 394.03 19.21 390.03 Z" />
<path fill="#01180d" opacity="1.00" d=" M 134.18 390.01 C 134.76 385.57 141.99 385.09 143.74 388.95 C 141.66 391.94 136.73 392.82 134.18 390.01 Z" />
<path fill="#01180d" opacity="1.00" d=" M 103.23 390.12 C 105.49 388.99 108.65 389.00 110.51 390.93 C 110.76 394.67 105.55 395.20 102.90 394.20 C 100.92 393.30 101.52 390.90 103.23 390.12 Z" />
<path fill="#01180d" opacity="1.00" d=" M 185.38 392.51 C 187.25 391.49 189.88 391.12 191.81 392.15 C 193.14 392.57 193.29 394.43 192.36 395.28 C 190.61 397.15 187.59 397.17 185.35 396.31 C 183.66 395.68 183.68 393.16 185.38 392.51 Z" />
<path fill="#01180d" opacity="1.00" d=" M 70.29 393.29 C 72.52 391.98 75.99 391.77 77.75 393.95 C 77.88 398.16 69.57 399.31 68.81 395.06 C 69.18 394.62 69.92 393.74 70.29 393.29 Z" />
<path fill="#01180d" opacity="1.00" d=" M 37.25 396.26 C 39.74 394.67 44.02 394.64 45.25 397.81 C 43.51 400.02 40.61 401.02 37.86 400.29 C 35.81 400.18 35.47 397.06 37.25 396.26 Z" />
<path fill="#01180d" opacity="1.00" d=" M 150.70 397.75 C 152.51 393.96 158.43 393.20 160.74 396.91 C 158.58 400.28 153.32 400.96 150.70 397.75 Z" />
<path fill="#01180d" opacity="1.00" d=" M 120.27 398.19 C 122.58 397.24 126.70 396.68 127.39 399.94 C 126.09 403.40 120.67 403.74 118.38 401.16 C 118.26 399.67 118.89 398.68 120.27 398.19 Z" />
<path fill="#01180d" opacity="1.00" d=" M 85.42 403.03 C 87.40 399.84 92.15 399.74 94.87 402.00 C 94.32 406.44 86.29 407.41 85.42 403.03 Z" />
<path fill="#01180d" opacity="1.00" d=" M 168.59 407.35 C 166.38 402.33 176.23 400.64 177.09 405.10 C 175.97 408.67 171.44 407.96 168.59 407.35 Z" />
<path fill="#01180d" opacity="1.00" d=" M 54.39 404.23 C 56.65 403.17 59.73 402.90 61.62 404.85 C 61.86 408.73 56.59 409.51 53.87 408.17 C 52.09 407.30 52.59 404.70 54.39 404.23 Z" />
<path fill="#01180d" opacity="1.00" d=" M 134.71 408.87 C 136.46 405.03 142.40 404.27 144.73 407.96 C 142.70 411.52 137.34 411.94 134.71 408.87 Z" />
<path fill="#01180d" opacity="1.00" d=" M 102.36 410.95 C 104.46 407.80 109.84 407.59 111.81 411.02 C 110.07 414.32 102.68 415.58 102.36 410.95 Z" />
<path fill="#01180d" opacity="1.00" d=" M 69.00 415.23 C 69.87 411.17 77.12 409.75 78.47 414.04 C 76.97 417.76 71.69 417.46 69.00 415.23 Z" />
<path fill="#01180d" opacity="1.00" d=" M 152.13 416.27 C 154.18 413.01 159.22 412.80 161.58 415.85 C 161.19 416.44 160.42 417.61 160.03 418.20 C 157.51 419.41 152.48 420.15 152.13 416.27 Z" />
<path fill="#01180d" opacity="1.00" d=" M 121.36 417.33 C 123.58 415.90 128.40 416.45 128.07 419.83 C 126.20 422.47 121.69 423.11 119.42 420.66 C 118.69 419.12 120.04 417.84 121.36 417.33 Z" />
<path fill="#01180d" opacity="1.00" d=" M 87.11 424.38 C 84.87 422.73 87.22 420.50 89.06 420.01 C 91.50 418.82 94.06 420.14 95.78 421.90 C 94.16 425.06 90.13 425.45 87.11 424.38 Z" />
</g>
<g id="#4dffaaff">
<path fill="#4dffaa" opacity="1.00" d=" M 111.43 5.63 C 114.58 3.39 118.85 3.94 122.15 5.55 C 154.60 19.53 187.04 33.55 219.47 47.58 C 223.65 49.30 227.09 52.30 230.06 55.65 C 226.01 57.95 222.55 61.19 218.35 63.24 C 219.94 61.84 221.57 60.50 223.24 59.20 C 190.20 45.18 157.38 30.67 124.40 16.52 C 120.72 14.96 116.20 14.30 112.77 16.82 C 92.67 29.66 72.66 42.64 52.57 55.50 C 50.99 56.54 49.49 57.69 48.00 58.85 C 43.98 57.25 40.17 55.10 35.96 54.02 C 61.14 37.93 86.26 21.73 111.43 5.63 Z" />
<path fill="#4dffaa" opacity="1.00" d=" M 93.65 37.00 C 97.87 33.67 102.49 29.41 108.29 30.00 C 102.85 30.99 98.22 34.09 93.65 37.00 Z" />
<path fill="#4dffaa" opacity="1.00" d=" M 98.59 38.11 C 103.51 33.42 111.08 32.10 117.46 34.13 C 114.34 33.99 111.20 33.84 108.10 34.18 C 104.68 34.79 101.70 36.69 98.59 38.11 Z" />
<path fill="#4dffaa" opacity="1.00" d=" M 118.22 34.43 C 118.30 34.47 118.47 34.53 118.56 34.56 L 118.38 34.50 L 118.22 34.43 Z" />
<path fill="#4dffaa" opacity="1.00" d=" M 130.32 35.49 C 130.41 35.53 130.57 35.60 130.66 35.64 L 130.48 35.57 L 130.32 35.49 Z" />
<path fill="#4dffaa" opacity="1.00" d=" M 90.09 39.49 C 89.48 37.85 92.14 36.36 93.50 37.12 C 92.53 38.12 91.37 38.93 90.09 39.49 Z" />
<path fill="#4dffaa" opacity="1.00" d=" M 92.81 42.22 C 92.90 40.62 93.77 40.02 95.43 40.43 C 94.84 41.50 93.96 42.10 92.81 42.22 Z" />
<path fill="#4dffaa" opacity="1.00" d=" M 132.26 40.50 C 132.32 40.52 132.45 40.58 132.51 40.61 C 132.45 40.58 132.32 40.52 132.26 40.50 Z" />
<path fill="#4dffaa" opacity="1.00" d=" M 94.72 48.22 C 98.24 45.90 101.73 43.14 106.00 42.41 C 111.01 41.69 116.32 41.92 120.94 44.17 C 137.54 51.53 154.28 58.58 170.80 66.11 C 166.94 68.81 163.04 72.08 158.16 72.56 C 153.99 73.27 149.63 72.78 145.78 71.02 C 128.61 63.42 111.37 55.94 94.21 48.33 C 92.53 47.74 91.47 46.32 90.64 44.82 C 91.99 45.97 93.34 47.11 94.72 48.22 Z" />
<path fill="#4dffaa" opacity="1.00" d=" M 91.32 43.49 C 91.35 43.45 91.39 43.36 91.41 43.31 C 91.39 43.36 91.35 43.45 91.32 43.49 Z" />
<path fill="#4dffaa" opacity="1.00" d=" M 153.39 45.48 C 153.44 45.50 153.55 45.55 153.61 45.57 C 153.55 45.55 153.44 45.50 153.39 45.48 Z" />
<path fill="#4dffaa" opacity="1.00" d=" M 87.79 47.60 C 89.61 49.76 91.94 51.41 94.54 52.50 C 111.08 59.73 127.61 67.01 144.13 74.28 C 149.02 76.35 154.56 77.11 159.77 75.97 C 166.08 74.63 171.01 70.19 176.27 66.77 C 173.90 68.97 177.84 71.42 176.12 73.82 C 174.11 77.29 169.98 78.67 166.94 81.06 C 160.58 85.91 151.70 86.52 144.44 83.45 C 127.59 76.00 110.73 68.59 93.88 61.15 C 91.27 60.01 88.05 58.31 88.07 55.02 C 87.79 53.38 89.49 52.36 90.26 51.11 C 89.32 50.03 88.45 48.88 87.79 47.60 Z" />
<path fill="#4dffaa" opacity="1.00" d=" M 162.44 49.43 C 162.49 49.45 162.58 49.49 162.63 49.51 C 162.58 49.49 162.49 49.45 162.44 49.43 Z" />
<path fill="#4dffaa" opacity="1.00" d=" M 164.28 54.45 C 164.35 54.48 164.48 54.54 164.55 54.58 C 164.48 54.54 164.35 54.48 164.28 54.45 Z" />
<path fill="#4dffaa" opacity="1.00" d=" M 234.00 54.16 C 239.57 56.76 246.47 58.68 249.35 64.67 C 251.49 69.58 246.88 74.18 242.81 76.21 C 242.25 68.07 238.21 60.91 234.00 54.16 Z" />
<path fill="#4dffaa" opacity="1.00" d=" M 27.06 60.04 C 29.66 56.98 34.29 56.87 37.76 58.35 C 69.91 72.59 102.04 86.87 134.20 101.12 C 146.81 105.81 154.64 119.11 155.66 132.13 C 111.64 112.59 67.63 93.01 23.74 73.20 C 23.82 68.67 23.95 63.66 27.06 60.04 Z" />
<path fill="#4dffaa" opacity="1.00" d=" M 208.18 70.02 C 210.84 67.50 213.94 65.51 217.25 63.96 C 214.46 66.30 211.45 68.41 208.18 70.02 Z" />
<path fill="#4dffaa" opacity="1.00" d=" M 171.39 65.70 C 171.46 65.66 171.59 65.57 171.65 65.53 C 171.59 65.57 171.46 65.66 171.39 65.70 Z" />
<path fill="#4dffaa" opacity="1.00" d=" M 196.59 77.78 C 199.20 75.29 202.24 73.33 205.50 71.80 C 202.80 74.17 199.80 76.18 196.59 77.78 Z" />
<path fill="#4dffaa" opacity="1.00" d=" M 85.44 75.28 L 85.64 75.36 L 85.82 75.46 C 85.73 75.41 85.54 75.32 85.44 75.28 Z" />
<path fill="#4dffaa" opacity="1.00" d=" M 18.43 78.51 C 19.86 77.69 21.49 75.97 23.21 77.10 C 29.63 80.29 36.52 82.53 42.75 86.05 C 40.28 85.23 37.81 84.42 35.33 83.63 C 29.95 87.44 24.35 90.92 18.75 94.40 C 19.19 94.85 20.07 95.76 20.51 96.22 C 17.11 94.69 13.95 91.95 12.83 88.29 C 11.92 84.15 15.28 80.65 18.43 78.51 Z" />
<path fill="#4dffaa" opacity="1.00" d=" M 161.27 130.55 C 187.03 113.65 212.67 96.58 238.30 79.50 C 238.42 80.46 238.64 82.40 238.76 83.37 C 218.73 97.22 198.19 110.35 178.00 123.96 C 172.43 127.55 167.01 131.38 161.37 134.88 C 161.33 133.43 161.30 131.99 161.27 130.55 Z" />
<path fill="#4dffaa" opacity="1.00" d=" M 184.56 85.56 C 185.17 84.58 186.03 84.01 187.16 83.82 C 187.08 85.49 186.22 86.06 184.56 85.56 Z" />
<path fill="#4dffaa" opacity="1.00" d=" M 49.27 89.00 C 54.83 90.97 60.30 93.31 65.45 96.20 C 59.78 94.50 54.52 91.69 49.27 89.00 Z" />
<path fill="#4dffaa" opacity="1.00" d=" M 119.45 90.40 C 119.52 90.43 119.65 90.49 119.72 90.52 C 119.65 90.49 119.52 90.43 119.45 90.40 Z" />
<path fill="#4dffaa" opacity="1.00" d=" M 172.62 93.56 C 173.17 92.57 174.00 92.00 175.11 91.84 C 175.09 93.51 174.26 94.08 172.62 93.56 Z" />
<path fill="#4dffaa" opacity="1.00" d=" M 128.44 94.29 L 128.64 94.36 L 128.83 94.47 C 128.73 94.42 128.54 94.33 128.44 94.29 Z" />
<path fill="#4dffaa" opacity="1.00" d=" M 13.08 95.88 C 15.20 97.48 17.38 99.03 19.80 100.16 C 46.92 112.36 74.04 124.55 101.15 136.76 C 107.11 139.25 112.79 142.55 119.16 143.91 C 124.69 145.06 130.38 145.41 136.02 145.11 C 136.65 154.45 137.12 163.80 137.34 173.16 C 132.72 173.28 128.10 172.96 123.53 172.28 C 117.63 171.22 112.24 168.47 106.85 165.98 C 79.06 153.44 51.34 140.76 23.54 128.25 C 19.10 126.27 14.04 123.15 13.41 117.86 C 13.12 110.54 13.20 103.21 13.08 95.88 Z" />
<path fill="#4dffaa" opacity="1.00" d=" M 137.54 98.29 L 137.75 98.36 L 137.93 98.47 C 137.84 98.42 137.64 98.33 137.54 98.29 Z" />
<path fill="#4dffaa" opacity="1.00" d=" M 163.60 99.54 C 164.24 98.59 165.11 98.01 166.23 97.79 C 166.16 99.47 165.29 100.05 163.60 99.54 Z" />
<path fill="#4dffaa" opacity="1.00" d=" M 27.54 99.39 C 27.59 99.41 27.70 99.46 27.76 99.49 C 27.70 99.46 27.59 99.41 27.54 99.39 Z" />
<path fill="#4dffaa" opacity="1.00" d=" M 139.55 99.35 C 139.61 99.38 139.72 99.44 139.78 99.48 C 139.72 99.44 139.61 99.38 139.55 99.35 Z" />
<path fill="#4dffaa" opacity="1.00" d=" M 160.76 101.53 C 161.31 100.59 162.10 100.00 163.15 99.75 C 163.29 101.44 162.50 102.03 160.76 101.53 Z" />
<path fill="#4dffaa" opacity="1.00" d=" M 37.41 103.79 C 43.73 106.00 49.87 108.77 55.74 111.99 C 49.45 109.71 43.30 106.97 37.41 103.79 Z" />
<path fill="#4dffaa" opacity="1.00" d=" M 86.31 105.48 C 86.37 105.51 86.50 105.57 86.56 105.60 C 86.50 105.57 86.37 105.51 86.31 105.48 Z" />
<path fill="#4dffaa" opacity="1.00" d=" M 95.44 109.56 C 95.52 109.60 95.68 109.67 95.75 109.71 C 95.68 109.67 95.52 109.60 95.44 109.56 Z" />
<path fill="#4dffaa" opacity="1.00" d=" M 154.69 167.31 C 183.69 147.97 212.77 128.76 241.76 109.41 C 241.84 110.83 241.93 112.25 242.01 113.67 C 213.57 132.61 185.11 151.52 156.67 170.44 C 152.82 173.14 148.31 174.63 143.80 175.77 C 143.76 174.47 143.74 173.18 143.72 171.89 C 147.61 171.03 151.37 169.54 154.69 167.31 Z" />
<path fill="#4dffaa" opacity="1.00" d=" M 97.33 110.44 C 97.39 110.47 97.50 110.52 97.56 110.55 C 97.50 110.52 97.39 110.47 97.33 110.44 Z" />
<path fill="#4dffaa" opacity="1.00" d=" M 65.32 116.32 L 65.49 116.39 L 65.66 116.47 C 65.57 116.43 65.40 116.36 65.32 116.32 Z" />
<path fill="#4dffaa" opacity="1.00" d=" M 74.42 120.45 C 74.48 120.47 74.60 120.53 74.66 120.55 C 74.60 120.53 74.48 120.47 74.42 120.45 Z" />
<path fill="#4dffaa" opacity="1.00" d=" M 84.46 124.92 C 88.43 126.00 92.14 127.81 95.66 129.92 C 91.76 128.68 87.94 127.10 84.46 124.92 Z" />
<path fill="#4dffaa" opacity="1.00" d=" M 96.49 130.37 C 96.56 130.40 96.68 130.47 96.75 130.50 C 96.68 130.47 96.56 130.40 96.49 130.37 Z" />
<path fill="#4dffaa" opacity="1.00" d=" M 142.14 130.47 C 142.24 130.51 142.43 130.60 142.52 130.65 L 142.33 130.57 L 142.14 130.47 Z" />
<path fill="#4dffaa" opacity="1.00" d=" M 24.77 133.13 C 27.02 133.87 29.17 134.86 31.31 135.88 C 58.47 148.22 85.64 160.55 112.80 172.89 C 120.80 176.46 129.70 177.16 138.35 176.47 C 132.83 239.98 127.85 303.54 122.47 367.06 C 122.17 371.94 122.35 377.52 118.75 381.34 C 111.86 381.87 104.88 380.18 98.75 377.07 C 91.54 373.58 84.27 370.23 77.15 366.56 C 79.55 351.30 73.67 336.13 65.70 323.38 C 57.36 310.92 45.50 299.40 30.31 296.41 C 29.53 276.27 28.98 256.11 28.36 235.96 C 26.91 201.70 26.30 167.39 24.77 133.13 M 39.85 153.54 C 36.94 154.73 35.49 158.04 35.68 161.05 C 35.85 175.05 36.42 189.04 36.67 203.03 C 36.59 208.28 38.78 213.74 43.05 216.93 C 46.04 218.83 49.42 220.00 52.57 221.61 C 55.02 222.77 58.01 224.35 60.60 222.64 C 63.77 221.11 64.32 217.22 64.18 214.09 C 63.83 200.32 63.23 186.56 62.93 172.80 C 62.99 168.87 61.66 164.97 59.13 161.96 C 56.65 158.64 52.52 157.43 48.95 155.70 C 46.08 154.50 43.09 152.57 39.85 153.54 Z" />
<path fill="#4dffaa" opacity="1.00" d=" M 105.46 134.33 L 105.66 134.40 L 105.85 134.50 C 105.75 134.46 105.56 134.37 105.46 134.33 Z" />
<path fill="#4dffaa" opacity="1.00" d=" M 107.44 135.37 C 107.48 135.39 107.57 135.42 107.61 135.44 C 107.57 135.42 107.48 135.39 107.44 135.37 Z" />
<path fill="#4dffaa" opacity="1.00" d=" M 108.32 135.68 C 112.68 136.70 116.50 139.34 120.97 139.96 C 131.61 142.42 142.85 140.47 152.63 135.86 C 146.13 140.52 137.82 141.78 129.99 141.68 C 122.43 141.54 114.80 139.63 108.32 135.68 Z" />
<path fill="#4dffaa" opacity="1.00" d=" M 39.52 160.08 C 39.43 158.53 40.49 157.43 41.66 156.60 C 45.64 158.56 49.84 160.07 53.73 162.23 C 57.48 164.67 59.21 169.33 59.22 173.67 C 59.32 182.14 59.65 190.61 59.78 199.08 C 60.02 205.06 60.66 211.07 60.18 217.06 C 60.14 218.42 59.03 219.92 57.52 219.47 C 54.15 218.28 51.05 216.45 47.77 215.06 C 43.17 213.10 40.51 208.03 40.50 203.17 C 40.35 188.80 39.39 174.45 39.52 160.08 Z" />
<path fill="#4dffaa" opacity="1.00" d=" M 207.99 187.83 C 211.69 185.62 217.35 188.44 216.85 192.99 C 214.02 237.45 211.15 281.90 208.32 326.36 C 207.46 326.98 206.61 327.60 205.75 328.22 C 200.31 326.00 195.00 323.48 189.55 321.27 C 188.02 320.57 186.34 320.62 184.71 320.64 C 187.49 281.28 190.20 241.91 192.90 202.55 C 186.46 207.29 179.71 211.59 173.20 216.23 C 171.03 217.76 169.76 220.36 169.70 222.99 C 166.61 261.09 163.32 299.17 160.42 337.29 C 159.01 338.37 157.61 339.45 156.20 340.52 C 158.97 301.17 162.66 261.87 165.63 222.52 C 165.90 218.54 168.14 214.86 171.43 212.64 C 183.59 204.34 195.71 195.95 207.99 187.83 Z" />
<path fill="#4dffaa" opacity="1.00" d=" M 17.65 312.88 C 25.11 311.98 32.17 315.69 37.95 320.04 C 50.32 330.04 58.79 345.05 60.07 360.98 C 60.33 366.74 59.49 373.00 55.67 377.56 C 52.21 381.86 46.15 383.34 40.91 382.06 C 30.71 379.79 22.46 372.47 16.31 364.33 C 8.48 353.62 3.21 340.17 5.08 326.74 C 5.89 320.18 10.73 313.61 17.65 312.88 M 22.16 327.93 C 16.75 330.07 15.10 336.63 15.61 341.91 C 16.67 351.94 22.81 361.57 31.87 366.17 C 36.49 368.60 43.11 368.27 46.35 363.76 C 49.62 359.96 49.29 354.60 48.73 349.95 C 46.72 341.17 41.26 332.88 33.15 328.67 C 29.81 326.84 25.71 326.53 22.16 327.93 Z" />
<path fill="#4dffaa" opacity="1.00" d=" M 27.44 331.06 C 33.82 332.60 38.60 337.72 41.72 343.25 C 44.26 347.63 45.60 352.77 44.85 357.84 C 33.95 354.27 26.42 342.43 27.44 331.06 Z" />
</g>
<g id="#ccffe7ff">
<path fill="#ccffe7" opacity="1.00" d=" M 112.77 16.82 C 116.20 14.30 120.72 14.96 124.40 16.52 C 157.38 30.67 190.20 45.18 223.24 59.20 C 221.57 60.50 219.94 61.84 218.35 63.24 C 218.08 63.42 217.53 63.78 217.25 63.96 C 213.94 65.51 210.84 67.50 208.18 70.02 C 207.34 70.70 206.44 71.29 205.50 71.80 C 202.24 73.33 199.20 75.29 196.59 77.78 C 193.50 79.85 190.55 82.30 187.16 83.82 C 186.03 84.01 185.17 84.58 184.56 85.56 C 181.69 87.96 178.54 90.33 175.11 91.84 C 174.00 92.00 173.17 92.57 172.62 93.56 C 170.78 95.30 168.63 96.91 166.23 97.79 C 165.11 98.01 164.24 98.59 163.60 99.54 L 163.15 99.75 C 162.10 100.00 161.31 100.59 160.76 101.53 C 157.71 104.30 153.96 106.19 150.70 108.70 C 147.45 105.20 144.12 101.63 139.78 99.48 C 139.72 99.44 139.61 99.38 139.55 99.35 L 137.93 98.47 L 137.75 98.36 L 137.54 98.29 C 134.57 97.19 131.58 96.07 128.83 94.47 L 128.64 94.36 L 128.44 94.29 C 125.46 93.22 122.60 91.84 119.72 90.52 C 119.65 90.49 119.52 90.43 119.45 90.40 C 108.24 85.43 96.94 80.61 85.82 75.46 L 85.64 75.36 L 85.44 75.28 C 72.89 69.97 60.54 64.19 48.00 58.85 C 49.49 57.69 50.99 56.54 52.57 55.50 C 72.66 42.64 92.67 29.66 112.77 16.82 M 93.65 37.00 L 93.50 37.12 C 92.14 36.36 89.48 37.85 90.09 39.49 C 87.45 41.10 86.33 44.82 87.79 47.60 C 88.45 48.88 89.32 50.03 90.26 51.11 C 89.49 52.36 87.79 53.38 88.07 55.02 C 88.05 58.31 91.27 60.01 93.88 61.15 C 110.73 68.59 127.59 76.00 144.44 83.45 C 151.70 86.52 160.58 85.91 166.94 81.06 C 169.98 78.67 174.11 77.29 176.12 73.82 C 177.84 71.42 173.90 68.97 176.27 66.77 C 179.15 64.94 180.46 60.67 178.09 57.91 C 174.24 53.21 167.76 52.28 162.63 49.51 C 162.58 49.49 162.49 49.45 162.44 49.43 C 159.51 48.12 156.56 46.84 153.61 45.57 C 153.55 45.55 153.44 45.50 153.39 45.48 C 145.80 42.22 138.26 38.86 130.66 35.64 C 130.57 35.60 130.41 35.53 130.32 35.49 C 123.45 32.34 116.10 28.46 108.29 30.00 C 102.49 29.41 97.87 33.67 93.65 37.00 Z" />
<path fill="#ccffe7" opacity="1.00" d=" M 98.59 38.11 C 101.70 36.69 104.68 34.79 108.10 34.18 C 111.20 33.84 114.34 33.99 117.46 34.13 L 118.22 34.43 L 118.38 34.50 L 118.56 34.56 C 123.16 36.44 127.76 38.35 132.26 40.50 C 132.32 40.52 132.45 40.58 132.51 40.61 C 143.14 45.12 153.74 49.73 164.28 54.45 C 164.35 54.48 164.48 54.54 164.55 54.58 C 168.23 56.48 173.06 57.09 175.44 60.84 C 175.75 63.26 173.36 64.49 171.65 65.53 C 171.59 65.57 171.46 65.66 171.39 65.70 L 170.80 66.11 C 154.28 58.58 137.54 51.53 120.94 44.17 C 116.32 41.92 111.01 41.69 106.00 42.41 C 101.73 43.14 98.24 45.90 94.72 48.22 C 93.34 47.11 91.99 45.97 90.64 44.82 L 91.32 43.49 C 91.35 43.45 91.39 43.36 91.41 43.31 L 91.92 42.34 L 92.81 42.22 C 93.96 42.10 94.84 41.50 95.43 40.43 C 96.24 39.38 97.43 38.72 98.59 38.11 Z" />
<path fill="#ccffe7" opacity="1.00" d=" M 35.33 83.63 C 37.81 84.42 40.28 85.23 42.75 86.05 C 44.98 86.89 47.16 87.89 49.27 89.00 C 54.52 91.69 59.78 94.50 65.45 96.20 C 72.48 99.12 79.39 102.31 86.31 105.48 C 86.37 105.51 86.50 105.57 86.56 105.60 C 89.55 106.85 92.52 108.16 95.44 109.56 C 95.52 109.60 95.68 109.67 95.75 109.71 L 97.33 110.44 C 97.39 110.47 97.50 110.52 97.56 110.55 C 112.47 117.08 127.37 123.66 142.14 130.47 L 142.33 130.57 L 142.52 130.65 C 146.30 132.10 149.90 133.96 153.67 135.44 L 152.63 135.86 C 142.85 140.47 131.61 142.42 120.97 139.96 C 116.50 139.34 112.68 136.70 108.32 135.68 L 107.61 135.44 C 107.57 135.42 107.48 135.39 107.44 135.37 L 105.85 134.50 L 105.66 134.40 L 105.46 134.33 C 102.49 133.21 99.59 131.92 96.75 130.50 C 96.68 130.47 96.56 130.40 96.49 130.37 L 95.66 129.92 C 92.14 127.81 88.43 126.00 84.46 124.92 C 81.13 123.61 77.88 122.09 74.66 120.55 C 74.60 120.53 74.48 120.47 74.42 120.45 C 71.48 119.17 68.52 117.93 65.66 116.47 L 65.49 116.39 L 65.32 116.32 C 62.06 115.04 58.88 113.55 55.74 111.99 C 49.87 108.77 43.73 106.00 37.41 103.79 C 34.12 102.53 30.93 101.03 27.76 99.49 C 27.70 99.46 27.59 99.41 27.54 99.39 C 25.22 98.29 22.73 97.52 20.51 96.22 C 20.07 95.76 19.19 94.85 18.75 94.40 C 24.35 90.92 29.95 87.44 35.33 83.63 Z" />
</g>
</svg>
