<?xml version="1.0" encoding="UTF-8" ?>
<!DOCTYPE svg PUBLIC "-//W3C//DTD SVG 1.1//EN" "http://www.w3.org/Graphics/SVG/1.1/DTD/svg11.dtd">
<svg width="61pt" height="61pt" viewBox="0 0 61 61" version="1.1" xmlns="http://www.w3.org/2000/svg">
<g id="#36d2d6ff">
<path fill="#36d2d6" opacity="1.00" d=" M 30.46 0.00 L 31.23 0.00 C 46.79 0.57 60.99 14.19 60.90 29.99 C 61.64 46.50 46.39 61.57 29.93 60.87 C 13.19 60.80 -1.41 44.69 0.27 28.00 C 1.57 12.85 15.30 0.27 30.46 0.00 M 24.57 6.73 C 21.12 7.39 17.99 9.10 15.18 11.16 C 4.52 19.25 3.06 36.34 11.63 46.46 C 20.19 57.07 37.74 57.99 47.54 48.60 C 57.10 39.85 57.70 23.51 49.00 13.96 C 43.05 7.25 33.20 4.53 24.57 6.73 Z" />
<path fill="#36d2d6" opacity="1.00" d=" M 38.79 21.70 C 41.09 20.01 44.83 23.34 42.92 25.75 C 39.03 29.93 34.86 33.83 30.89 37.93 C 29.84 39.19 27.67 39.94 26.43 38.50 C 24.18 36.42 21.98 34.27 19.94 31.99 C 17.92 29.80 20.88 25.94 23.51 27.44 C 25.25 28.70 26.66 30.35 28.04 31.99 C 31.87 28.82 34.93 24.82 38.79 21.70 Z" />
</g>
</svg>
