<?xml version="1.0" encoding="UTF-8" ?>
<!DOCTYPE svg PUBLIC "-//W3C//DTD SVG 1.1//EN" "http://www.w3.org/Graphics/SVG/1.1/DTD/svg11.dtd">
<svg width="93pt" height="92pt" viewBox="0 0 93 92" version="1.1" xmlns="http://www.w3.org/2000/svg">
<g id="#b7bbdcff">
<path fill="#b7bbdc" opacity="1.00" d=" M 17.49 0.00 L 75.02 0.00 C 81.44 0.23 87.57 3.93 90.56 9.64 C 93.19 13.64 92.66 18.61 92.55 23.15 C 91.56 25.40 88.33 26.36 86.54 24.51 C 84.18 22.28 85.87 18.75 85.08 15.95 C 84.56 10.67 79.12 7.16 74.11 7.25 C 55.73 7.26 37.35 7.29 18.98 7.27 C 15.62 7.10 12.36 8.65 9.99 10.94 C 7.22 13.76 7.00 18.01 7.81 21.67 C 9.53 26.10 14.09 29.23 18.87 29.06 C 37.86 29.13 56.85 28.98 75.84 29.13 C 82.22 29.04 87.73 33.45 90.74 38.79 C 94.45 45.34 91.56 53.15 93.00 60.23 L 93.00 55.33 C 91.19 64.11 94.85 73.73 91.00 82.05 C 88.56 87.00 83.95 90.84 78.51 92.00 L 17.44 92.00 C 7.77 90.21 0.23 81.15 0.00 71.37 L 0.00 17.80 C 0.03 8.45 8.27 0.44 17.49 0.00 M 7.37 32.62 C 7.57 45.44 7.39 58.26 7.46 71.08 C 6.96 78.85 14.47 85.40 21.97 85.27 C 39.34 85.27 56.71 85.26 74.08 85.28 C 79.64 85.41 85.40 80.97 85.26 75.08 C 85.34 65.70 85.28 56.32 85.29 46.94 C 85.56 41.37 80.67 36.13 75.08 36.17 C 56.05 36.16 37.01 36.16 17.97 36.17 C 14.13 36.30 10.47 34.78 7.37 32.62 Z" />
<path fill="#b7bbdc" opacity="1.00" d=" M 16.26 14.98 C 17.71 14.28 19.38 14.56 20.93 14.50 C 38.64 14.53 56.36 14.52 74.07 14.50 C 77.11 14.02 79.50 18.10 77.25 20.37 C 76.49 21.95 74.52 21.73 73.08 21.76 C 54.72 21.69 36.36 21.81 18.00 21.71 C 14.58 21.87 13.37 16.59 16.26 14.98 Z" />
</g>
</svg>
